<svg width="122" height="180" viewBox="0 0 122 180" fill="none" xmlns="http://www.w3.org/2000/svg">
<path d="M60 30C67.0889 30 73.4614 31.107 78.0254 32.8623C80.3107 33.7413 82.0921 34.7636 83.2842 35.8477C84.4759 36.9314 85 37.998 85 39C85 40.002 84.4759 41.0686 83.2842 42.1523C82.0921 43.2364 80.3107 44.2587 78.0254 45.1377C73.4614 46.893 67.0889 48 60 48C52.9111 48 46.5386 46.893 41.9746 45.1377C39.6893 44.2587 37.9079 43.2364 36.7158 42.1523C35.5241 41.0686 35 40.002 35 39C35 37.998 35.5241 36.9314 36.7158 35.8477C37.9079 34.7636 39.6893 33.7413 41.9746 32.8623C46.5386 31.107 52.9111 30 60 30Z" stroke="white" stroke-width="2"/>
<path d="M60 90C67.1362 90 73.5703 90.5567 78.1963 91.4463C80.5173 91.8927 82.3323 92.4134 83.543 92.9639C84.1514 93.2405 84.5527 93.5004 84.7871 93.7207C84.9592 93.8824 84.993 93.9753 84.999 94C84.993 94.0247 84.9592 94.1176 84.7871 94.2793C84.5527 94.4996 84.1514 94.7595 83.543 95.0361C82.3323 95.5866 80.5173 96.1073 78.1963 96.5537C73.5703 97.4433 67.1362 98 60 98C52.8638 98 46.4297 97.4433 41.8037 96.5537C39.4827 96.1073 37.6677 95.5866 36.457 95.0361C35.8486 94.7595 35.4473 94.4996 35.2129 94.2793C34.9782 94.0587 35 93.9666 35 94C35 94.0334 34.9782 93.9413 35.2129 93.7207C35.4473 93.5004 35.8486 93.2405 36.457 92.9639C37.6677 92.4134 39.4827 91.8927 41.8037 91.4463C46.4297 90.5567 52.8638 90 60 90Z" stroke="white" stroke-width="2"/>
<path d="M84 91.4C84 91.1791 84.1791 91 84.4 91H85.6C85.8209 91 86 91.1791 86 91.4V94C86 94.5523 85.5523 95 85 95C84.4477 95 84 94.5523 84 94V91.4Z" fill="white"/>
<path d="M86.0024 81.612C86.0011 81.8329 85.8209 82.0109 85.6 82.0095L84.4 82.0023C84.1791 82.001 84.0011 81.8208 84.0024 81.5999L84.0181 79C84.0214 78.4477 84.4718 78.0027 85.0241 78.006C85.5763 78.0093 86.0214 78.4597 86.018 79.012L86.0024 81.612Z" fill="white"/>
<path d="M84 39C84 38.4477 84.4477 38 85 38C85.5523 38 86 38.4477 86 39V81C86 81.5523 85.5523 82 85 82C84.4477 82 84 81.5523 84 81V39Z" fill="white"/>
<rect x="34" y="39" width="2" height="56" rx="1" fill="white"/>
<g filter="url(#filter0_d_6_54)">
<path d="M85 59L84.2352 59.4199C68.8684 67.8565 50.2206 67.6975 35 59" stroke="white"/>
</g>
<g filter="url(#filter1_d_6_54)">
<path d="M85 75L84.2352 75.4199C68.8684 83.8565 50.2206 83.6975 35 75" stroke="white"/>
</g>
<path d="M86.4424 89.9793C86.4433 90.066 86.4038 90.1097 86.3238 90.1106C86.0772 90.1132 85.8338 90.1091 85.5936 90.0983C85.3535 90.0875 85.1135 90.0833 84.8735 90.0859C84.7601 90.0871 84.6468 90.0916 84.5336 90.0995C84.4203 90.1007 84.307 90.1052 84.1937 90.113C84.0805 90.1209 83.9672 90.1321 83.8541 90.1466C83.7475 90.1544 83.6375 90.1589 83.5242 90.1601C83.4642 90.1607 83.424 90.1445 83.4037 90.1114C83.3899 90.0715 83.3828 90.0283 83.3823 89.9816C83.382 89.9549 83.3884 89.9282 83.4014 89.9014C83.4144 89.8679 83.4376 89.851 83.4709 89.8507C83.4908 89.8438 83.5208 89.8401 83.5608 89.8397C83.6075 89.8392 83.6542 89.8421 83.7009 89.8482C83.7542 89.8477 83.8042 89.8471 83.8509 89.8466C83.9442 89.8457 84.0474 89.8346 84.1606 89.8134C84.2803 89.7921 84.3462 89.7181 84.3582 89.5913C84.3647 89.5712 84.3645 89.5512 84.3576 89.5313C84.3574 89.5113 84.3572 89.4913 84.357 89.4713L84.2923 83.3416L84.2323 83.3423C83.9862 84.0316 83.7301 84.7176 83.464 85.4005C83.1977 86.0767 82.9315 86.7528 82.6653 87.429C82.5615 87.7035 82.4544 87.9779 82.344 88.2525C82.2335 88.527 82.1231 88.8015 82.0127 89.076C81.9673 89.1965 81.9219 89.3203 81.8766 89.4475C81.8379 89.5745 81.7892 89.6951 81.7304 89.809C81.6845 89.8828 81.6115 89.9203 81.5115 89.9213C81.4182 89.9223 81.3478 89.8864 81.3004 89.8136C81.246 89.7141 81.1949 89.608 81.147 89.4952C81.1058 89.3822 81.0613 89.2727 81.0136 89.1665C80.9111 88.9343 80.812 88.7053 80.7163 88.4796C80.6206 88.254 80.5249 88.0283 80.4291 87.8026C80.1147 87.0726 79.8004 86.3458 79.4861 85.6225C79.1784 84.8923 78.8707 84.1655 78.563 83.4421C78.5739 84.4754 78.5849 85.512 78.5958 86.5519C78.6134 87.5851 78.6276 88.6183 78.6385 89.6516C78.6399 89.7849 78.6974 89.861 78.811 89.8798C78.9312 89.8986 79.0413 89.9074 79.1413 89.9063C79.2079 89.9056 79.2745 89.9016 79.3411 89.8942C79.4077 89.8869 79.4744 89.8828 79.541 89.8821C79.5744 89.8818 79.5912 89.9016 79.5917 89.9416C79.592 89.9749 79.5892 90.0216 79.5831 90.0817C79.5771 90.1417 79.5507 90.172 79.5041 90.1725C79.3241 90.1744 79.1407 90.173 78.954 90.1683C78.7739 90.1569 78.5938 90.1521 78.4138 90.154C78.2405 90.1559 78.0639 90.1644 77.8841 90.1796C77.7108 90.1881 77.5375 90.1933 77.3642 90.1951C77.3574 90.1818 77.3506 90.1719 77.3439 90.1653C77.3437 90.152 77.3403 90.142 77.3336 90.1354L77.3326 90.0454C77.3319 89.9788 77.3449 89.942 77.3715 89.935C77.3981 89.9281 77.4347 89.9243 77.4813 89.9238C77.5347 89.9233 77.5847 89.9261 77.6314 89.9323C77.6781 89.9318 77.7248 89.9313 77.7714 89.9308C77.8714 89.9297 77.978 89.9153 78.091 89.8874C78.204 89.8596 78.2632 89.7823 78.2686 89.6555C78.2808 89.5487 78.283 89.442 78.2752 89.3354C78.274 89.2221 78.2728 89.1121 78.2717 89.0055C78.2695 88.7921 78.2639 88.5788 78.255 88.3656C78.2526 88.1456 78.2503 87.929 78.2481 87.7156C78.2406 87.0023 78.2364 86.2923 78.2356 85.5856C78.2415 84.8789 78.2407 84.1722 78.2333 83.4656C78.2319 83.3389 78.171 83.2562 78.0506 83.2175C77.9302 83.1787 77.82 83.1599 77.72 83.161C77.66 83.1616 77.6001 83.1656 77.5401 83.1729C77.4802 83.1801 77.4202 83.1841 77.3602 83.1847C77.3202 83.1852 77.2934 83.1655 77.2796 83.1256C77.2659 83.0857 77.2588 83.0525 77.2586 83.0258C77.2576 82.9325 77.2938 82.8854 77.3671 82.8847C77.5404 82.8828 77.7171 82.8876 77.8973 82.8991C78.0773 82.9038 78.254 82.9053 78.4273 82.9035C78.7673 82.8999 79.1072 82.8863 79.447 82.8627L81.877 88.5374C82.2336 87.5802 82.6069 86.6329 82.997 85.6954C83.3871 84.7513 83.7471 83.7974 84.0769 82.8339C84.2436 82.8388 84.407 82.8437 84.5671 82.8487C84.7338 82.8469 84.9004 82.8452 85.0671 82.8434C85.2671 82.8413 85.4636 82.8326 85.6568 82.8172C85.8566 82.7951 86.0565 82.783 86.2565 82.7809C86.2965 82.7805 86.32 82.8002 86.3271 82.8401C86.3342 82.8801 86.3379 82.9134 86.3382 82.94C86.3384 82.9667 86.3355 83.0001 86.3292 83.0401C86.323 83.0802 86.2999 83.1004 86.2599 83.1009C86.1732 83.1018 86.0898 83.0993 86.0098 83.0935C85.9297 83.0877 85.8497 83.0852 85.7697 83.086C85.6897 83.0869 85.5899 83.1079 85.4703 83.1492C85.3573 83.1837 85.3014 83.251 85.3024 83.351L85.3673 89.5006C85.3689 89.654 85.4133 89.7502 85.5004 89.7892C85.5941 89.8216 85.7109 89.837 85.8509 89.8355C85.9309 89.8347 86.0108 89.8305 86.0908 89.823C86.1707 89.8155 86.254 89.8113 86.3406 89.8104C86.394 89.8098 86.4242 89.8295 86.4313 89.8694C86.4384 89.9094 86.4421 89.946 86.4424 89.9793ZM93.5964 88.1737C93.5969 88.2137 93.5939 88.2538 93.5877 88.2938C93.5815 88.3339 93.5685 88.3707 93.5489 88.4043C93.4644 88.6118 93.3299 88.8166 93.1453 89.0186C92.9674 89.2138 92.7824 89.3757 92.5904 89.5044C92.2925 89.7076 91.974 89.851 91.6349 89.9345C91.3024 90.018 90.9595 90.0617 90.6062 90.0654C89.8929 90.0729 89.2747 89.9294 88.7516 89.6349C88.235 89.3337 87.8373 88.9145 87.5583 88.3775C87.2792 87.8404 87.136 87.2218 87.1287 86.5219C87.1232 86.0019 87.1947 85.5145 87.3432 85.0595C87.4918 84.6046 87.7109 84.2056 88.0006 83.8625C88.2903 83.5128 88.6474 83.239 89.072 83.0412C89.4966 82.8367 89.9822 82.7316 90.5288 82.7258C90.7954 82.723 91.0492 82.7636 91.2901 82.8478C91.5376 82.9252 91.7852 83.0059 92.0327 83.09C92.1732 83.1351 92.3169 83.1703 92.4639 83.1954C92.6175 83.2205 92.7677 83.2389 92.9145 83.2507C92.9227 83.3973 92.9342 83.5438 92.9491 83.6903C92.9639 83.8302 92.9821 83.9733 93.0036 84.1198C93.025 84.2529 93.0498 84.3893 93.078 84.529C93.1127 84.662 93.1308 84.7985 93.1323 84.9385C93.1334 85.0451 93.111 85.132 93.065 85.1992C93.0257 85.2663 92.9461 85.3004 92.8261 85.3017C92.7594 85.3024 92.709 85.2663 92.6749 85.1933C92.6476 85.1269 92.6235 85.0572 92.6027 84.984C92.5886 84.9042 92.5711 84.831 92.5504 84.7646C92.4948 84.5452 92.4023 84.3161 92.2732 84.0775C92.1439 83.8322 91.9885 83.6371 91.807 83.4924C91.7262 83.4199 91.6054 83.3478 91.4447 83.2762C91.2906 83.2045 91.1299 83.1462 90.9628 83.1012C90.8023 83.0563 90.6654 83.0344 90.5521 83.0356C90.3521 83.0377 90.1491 83.0765 89.9433 83.152C89.7374 83.2275 89.5551 83.3261 89.3963 83.4478C89.0988 83.6843 88.8618 83.9701 88.6854 84.3053C88.5088 84.6339 88.3825 84.9852 88.3065 85.3594C88.2371 85.7335 88.2043 86.1038 88.2082 86.4705C88.2124 86.8705 88.2632 87.2633 88.3606 87.649C88.4579 88.0279 88.6082 88.3697 88.8115 88.6743C89.0147 88.9788 89.2773 89.2227 89.5992 89.406C89.9211 89.5826 90.312 89.6685 90.772 89.6636C90.9653 89.6616 91.1817 89.6326 91.4211 89.5768C91.6605 89.5142 91.8664 89.4454 92.039 89.3702C92.2447 89.2814 92.4335 89.1694 92.6055 89.0342C92.7773 88.8924 92.9323 88.7341 93.0705 88.5593C93.0837 88.5458 93.1099 88.5056 93.1492 88.4385C93.1952 88.3713 93.2411 88.3042 93.2871 88.237C93.333 88.1699 93.3626 88.1295 93.3758 88.1161C93.4087 88.0757 93.4452 88.0553 93.4852 88.0549C93.5585 88.0541 93.5956 88.0937 93.5964 88.1737Z" fill="white"/>
<path d="M115 62.4545V64.6364C111.068 64.6591 108.398 65.375 106.989 66.7841C105.602 68.1705 104.909 70.8182 104.909 74.7273V92.5909C104.909 95.0682 104.659 97.2159 104.159 99.0341C103.659 100.875 102.898 102.398 101.875 103.602C100.852 104.807 99.5568 105.705 97.9886 106.295C96.4432 106.886 94.6136 107.182 92.5 107.182V105C94.8864 105 96.8295 104.568 98.3295 103.705C99.8295 102.864 100.932 101.523 101.636 99.6818C102.364 97.8636 102.727 95.5 102.727 92.5909V74.7273C102.727 72.4773 102.943 70.5795 103.375 69.0341C103.807 67.4659 104.5 66.2045 105.455 65.25C106.409 64.2727 107.67 63.5682 109.239 63.1364C110.807 62.6818 112.727 62.4545 115 62.4545ZM92.5 19.9091C94.6136 19.9091 96.4432 20.2045 97.9886 20.7955C99.5568 21.3864 100.852 22.2841 101.875 23.4886C102.898 24.6932 103.659 26.2159 104.159 28.0568C104.659 29.875 104.909 32.0227 104.909 34.5V52.3636C104.909 56.2727 105.602 58.9318 106.989 60.3409C108.398 61.7273 111.068 62.4318 115 62.4545V64.6364C112.727 64.6136 110.807 64.3864 109.239 63.9545C107.67 63.5 106.409 62.7955 105.455 61.8409C104.5 60.8864 103.807 59.6364 103.375 58.0909C102.943 56.5227 102.727 54.6136 102.727 52.3636V34.5C102.727 31.5909 102.364 29.2273 101.636 27.4091C100.932 25.5682 99.8295 24.2159 98.3295 23.3523C96.8295 22.4886 94.8864 22.0682 92.5 22.0909V19.9091ZM115 62.4545V64.6364H107.636V62.4545H115Z" fill="white"/>
<path d="M6.27273 64.6364V62.4545C10.2045 62.4318 12.8636 61.7273 14.25 60.3409C15.6591 58.9318 16.3636 56.2727 16.3636 52.3636V34.5C16.3636 32.0227 16.6136 29.875 17.1136 28.0568C17.6136 26.2159 18.375 24.6932 19.3977 23.4886C20.4205 22.2841 21.7045 21.3864 23.25 20.7955C24.8182 20.2045 26.6591 19.9091 28.7727 19.9091V22.0909C26.4091 22.0682 24.4659 22.4886 22.9432 23.3523C21.4432 24.2159 20.3295 25.5682 19.6023 27.4091C18.8977 29.2273 18.5455 31.5909 18.5455 34.5V52.3636C18.5455 54.6136 18.3295 56.5227 17.8977 58.0909C17.4659 59.6364 16.7727 60.8977 15.8182 61.875C14.8636 62.8295 13.6023 63.5341 12.0341 63.9886C10.4659 64.4205 8.54545 64.6364 6.27273 64.6364ZM28.7727 107.182C26.6591 107.182 24.8182 106.886 23.25 106.295C21.7045 105.705 20.4205 104.807 19.3977 103.602C18.375 102.398 17.6136 100.875 17.1136 99.0341C16.6136 97.2159 16.3636 95.0682 16.3636 92.5909V74.7273C16.3636 70.8182 15.6591 68.1705 14.25 66.7841C12.8636 65.375 10.2045 64.6591 6.27273 64.6364V62.4545C8.54545 62.4773 10.4659 62.7159 12.0341 63.1705C13.6023 63.6023 14.8636 64.2955 15.8182 65.25C16.7727 66.2045 17.4659 67.4659 17.8977 69.0341C18.3295 70.5795 18.5455 72.4773 18.5455 74.7273V92.5909C18.5455 95.5 18.8977 97.8636 19.6023 99.6818C20.3295 101.523 21.4432 102.864 22.9432 103.705C24.4659 104.568 26.4091 105 28.7727 105V107.182ZM6.27273 64.6364V62.4545H13.6364V64.6364H6.27273Z" fill="white"/>
<path d="M35.224 106.248C35.224 106.4 35.1893 106.527 35.12 106.628C35.0507 106.729 34.9587 106.811 34.844 106.872C34.732 106.931 34.6093 106.973 34.476 107C34.3453 107.024 34.2173 107.036 34.092 107.036C33.9293 107.036 33.776 107.011 33.632 106.96C33.5733 106.939 33.516 106.916 33.46 106.892C33.404 106.865 33.3453 106.844 33.284 106.828C33.2733 106.743 33.2547 106.649 33.228 106.548C33.204 106.447 33.192 106.355 33.192 106.272C33.192 106.235 33.1973 106.207 33.208 106.188C33.2213 106.167 33.2493 106.156 33.292 106.156C33.3293 106.156 33.3533 106.165 33.364 106.184C33.3747 106.2 33.3827 106.223 33.388 106.252C33.3987 106.289 33.408 106.327 33.416 106.364C33.424 106.399 33.4333 106.435 33.444 106.472C33.4973 106.632 33.576 106.744 33.68 106.808C33.7867 106.872 33.9227 106.904 34.088 106.904C34.224 106.904 34.3453 106.885 34.452 106.848C34.5613 106.808 34.6467 106.744 34.708 106.656C34.772 106.568 34.804 106.451 34.804 106.304C34.804 106.189 34.7653 106.087 34.688 105.996C34.6107 105.903 34.5253 105.829 34.432 105.776C34.4107 105.763 34.388 105.751 34.364 105.74C34.34 105.729 34.316 105.719 34.292 105.708C34.2093 105.665 34.1253 105.623 34.04 105.58C33.9573 105.537 33.8733 105.496 33.788 105.456C33.7053 105.413 33.62 105.36 33.532 105.296C33.4467 105.229 33.3733 105.153 33.312 105.068C33.2533 104.983 33.224 104.889 33.224 104.788C33.224 104.617 33.2693 104.476 33.36 104.364C33.4507 104.252 33.5667 104.168 33.708 104.112C33.8493 104.056 33.996 104.028 34.148 104.028C34.2573 104.028 34.3547 104.041 34.44 104.068C34.528 104.095 34.6147 104.123 34.7 104.152C34.7853 104.179 34.8787 104.197 34.98 104.208C34.988 104.288 34.996 104.368 35.004 104.448C35.012 104.528 35.024 104.608 35.04 104.688C35.0427 104.699 35.044 104.709 35.044 104.72C35.0467 104.731 35.048 104.741 35.048 104.752C35.048 104.795 35.0333 104.823 35.004 104.836C34.9773 104.847 34.9467 104.852 34.912 104.852C34.8773 104.852 34.8587 104.845 34.856 104.832C34.8533 104.819 34.8493 104.799 34.844 104.772C34.8093 104.559 34.736 104.399 34.624 104.292C34.512 104.183 34.344 104.128 34.12 104.128C33.9547 104.128 33.8253 104.172 33.732 104.26C33.6413 104.348 33.596 104.476 33.596 104.644C33.596 104.756 33.6253 104.851 33.684 104.928C33.7427 105.005 33.82 105.073 33.916 105.132C34.0147 105.188 34.1213 105.241 34.236 105.292C34.3533 105.343 34.4693 105.395 34.584 105.448C34.6987 105.501 34.804 105.564 34.9 105.636C34.9987 105.705 35.0773 105.789 35.136 105.888C35.1947 105.987 35.224 106.107 35.224 106.248ZM36.643 106.94C36.643 106.953 36.639 106.967 36.631 106.98C36.623 106.991 36.6123 106.996 36.599 106.996C36.5243 106.996 36.4497 106.995 36.375 106.992C36.303 106.987 36.2283 106.984 36.151 106.984H36.043C35.963 106.984 35.883 106.987 35.803 106.992C35.7257 106.995 35.6483 106.996 35.571 106.996C35.5603 106.996 35.5523 106.989 35.547 106.976C35.5443 106.963 35.543 106.952 35.543 106.944C35.543 106.931 35.5443 106.921 35.547 106.916C35.5497 106.908 35.5577 106.903 35.571 106.9C35.5843 106.895 35.599 106.893 35.615 106.896C35.6337 106.896 35.651 106.896 35.667 106.896C35.6857 106.896 35.703 106.897 35.719 106.9C35.735 106.9 35.7523 106.9 35.771 106.9C35.8083 106.9 35.8417 106.892 35.871 106.876C35.903 106.857 35.919 106.827 35.919 106.784V105.184C35.919 105.139 35.911 105.104 35.895 105.08C35.879 105.053 35.8457 105.04 35.795 105.04C35.7577 105.04 35.719 105.043 35.679 105.048C35.6417 105.051 35.6043 105.055 35.567 105.06C35.5457 105.06 35.535 105.048 35.535 105.024C35.535 104.997 35.5457 104.98 35.567 104.972C35.599 104.961 35.6323 104.955 35.667 104.952C35.7043 104.947 35.739 104.941 35.771 104.936C35.8457 104.923 35.9203 104.908 35.995 104.892C36.0697 104.876 36.143 104.859 36.215 104.84C36.223 104.837 36.2337 104.836 36.247 104.836C36.2763 104.836 36.291 104.852 36.291 104.884C36.291 105.199 36.2897 105.515 36.287 105.832C36.287 106.149 36.287 106.467 36.287 106.784C36.287 106.827 36.3057 106.857 36.343 106.876C36.383 106.892 36.4203 106.9 36.455 106.9C36.4817 106.9 36.5083 106.899 36.535 106.896C36.5643 106.893 36.5923 106.892 36.619 106.892C36.6297 106.892 36.6363 106.899 36.639 106.912C36.6417 106.925 36.643 106.935 36.643 106.94ZM36.319 104.172C36.319 104.239 36.295 104.296 36.247 104.344C36.199 104.389 36.1417 104.412 36.075 104.412C36.0083 104.412 35.951 104.389 35.903 104.344C35.855 104.296 35.831 104.239 35.831 104.172C35.831 104.105 35.855 104.049 35.903 104.004C35.951 103.956 36.0083 103.932 36.075 103.932C36.1417 103.932 36.199 103.956 36.247 104.004C36.295 104.049 36.319 104.105 36.319 104.172ZM38.402 107.128C38.402 107.021 38.3713 106.945 38.31 106.9C38.2513 106.852 38.1793 106.821 38.094 106.808C38.0087 106.792 37.926 106.78 37.846 106.772L37.398 106.728C37.3393 106.792 37.2953 106.856 37.266 106.92C37.2393 106.981 37.226 107.056 37.226 107.144C37.226 107.272 37.2567 107.364 37.318 107.42C37.382 107.479 37.462 107.516 37.558 107.532C37.654 107.548 37.7513 107.556 37.85 107.556C37.946 107.556 38.0353 107.543 38.118 107.516C38.2033 107.489 38.2713 107.444 38.322 107.38C38.3753 107.319 38.402 107.235 38.402 107.128ZM38.206 105.528C38.206 105.445 38.1967 105.357 38.178 105.264C38.1593 105.171 38.122 105.091 38.066 105.024C38.0127 104.957 37.934 104.924 37.83 104.924C37.7127 104.924 37.622 104.955 37.558 105.016C37.494 105.075 37.45 105.151 37.426 105.244C37.4047 105.335 37.394 105.429 37.394 105.528C37.394 105.632 37.4033 105.731 37.422 105.824C37.4433 105.915 37.4847 105.989 37.546 106.048C37.61 106.107 37.7047 106.136 37.83 106.136C37.9073 106.136 37.97 106.116 38.018 106.076C38.0687 106.036 38.1073 105.985 38.134 105.924C38.1607 105.86 38.1793 105.793 38.19 105.724C38.2007 105.655 38.206 105.589 38.206 105.528ZM38.918 104.872C38.918 104.928 38.906 104.967 38.882 104.988C38.8607 105.007 38.8313 105.017 38.794 105.02C38.7593 105.02 38.722 105.02 38.682 105.02C38.6233 105.02 38.5633 105.02 38.502 105.02C38.4433 105.017 38.3833 105.015 38.322 105.012C38.4073 105.079 38.47 105.159 38.51 105.252C38.5527 105.345 38.574 105.445 38.574 105.552C38.574 105.683 38.5367 105.799 38.462 105.9C38.39 105.999 38.2967 106.076 38.182 106.132C38.0673 106.188 37.9487 106.216 37.826 106.216C37.7833 106.216 37.742 106.215 37.702 106.212C37.662 106.207 37.6207 106.203 37.578 106.2C37.5433 106.232 37.5033 106.267 37.458 106.304C37.4153 106.341 37.394 106.387 37.394 106.44C37.394 106.483 37.414 106.515 37.454 106.536C37.4967 106.555 37.5433 106.568 37.594 106.576C37.6447 106.584 37.6847 106.589 37.714 106.592L38.222 106.628C38.3127 106.636 38.4007 106.656 38.486 106.688C38.574 106.717 38.6473 106.764 38.706 106.828C38.7647 106.889 38.794 106.973 38.794 107.08C38.794 107.192 38.7607 107.285 38.694 107.36C38.63 107.435 38.546 107.495 38.442 107.54C38.3407 107.585 38.2353 107.617 38.126 107.636C38.0167 107.655 37.918 107.664 37.83 107.664C37.7607 107.664 37.674 107.66 37.57 107.652C37.466 107.647 37.3633 107.631 37.262 107.604C37.1607 107.577 37.0753 107.535 37.006 107.476C36.9393 107.42 36.906 107.343 36.906 107.244C36.906 107.172 36.9233 107.104 36.958 107.04C36.9927 106.979 37.0353 106.921 37.086 106.868C37.1393 106.815 37.1913 106.768 37.242 106.728C37.2127 106.715 37.1727 106.695 37.122 106.668C37.074 106.639 37.05 106.605 37.05 106.568C37.05 106.523 37.074 106.472 37.122 106.416C37.1727 106.36 37.2273 106.307 37.286 106.256C37.3447 106.203 37.39 106.161 37.422 106.132C37.286 106.068 37.1847 105.987 37.118 105.888C37.054 105.787 37.022 105.661 37.022 105.512C37.022 105.373 37.0607 105.255 37.138 105.156C37.218 105.055 37.318 104.977 37.438 104.924C37.5607 104.868 37.6847 104.84 37.81 104.84C37.8553 104.84 37.9007 104.844 37.946 104.852C37.9913 104.857 38.0353 104.867 38.078 104.88C38.0993 104.885 38.122 104.893 38.146 104.904C38.1727 104.912 38.1967 104.917 38.218 104.92C38.2367 104.923 38.254 104.924 38.27 104.924C38.2887 104.924 38.3073 104.924 38.326 104.924C38.422 104.924 38.514 104.917 38.602 104.904C38.69 104.888 38.7687 104.843 38.838 104.768C38.854 104.752 38.8673 104.744 38.878 104.744C38.8993 104.744 38.9113 104.763 38.914 104.8C38.9167 104.835 38.918 104.859 38.918 104.872ZM41.429 106.892C41.429 106.924 41.405 106.948 41.357 106.964C41.3117 106.98 41.261 106.991 41.205 106.996C41.149 107.001 41.109 107.004 41.085 107.004C40.9944 107.004 40.9224 106.968 40.869 106.896C40.8157 106.824 40.7757 106.749 40.749 106.672C40.6584 106.787 40.545 106.872 40.409 106.928C40.273 106.984 40.1317 107.012 39.985 107.012C39.745 107.012 39.5784 106.951 39.485 106.828C39.3944 106.703 39.349 106.527 39.349 106.3C39.349 106.1 39.349 105.9 39.349 105.7C39.3517 105.497 39.3544 105.296 39.357 105.096C39.357 105.016 39.3184 104.976 39.241 104.976C39.2197 104.976 39.1984 104.977 39.177 104.98C39.1557 104.983 39.1344 104.984 39.113 104.984C39.105 104.984 39.0984 104.98 39.093 104.972C39.0904 104.961 39.089 104.953 39.089 104.948C39.089 104.919 39.1024 104.903 39.129 104.9C39.2224 104.889 39.3157 104.883 39.409 104.88C39.505 104.875 39.5997 104.867 39.693 104.856C39.7144 104.877 39.725 104.904 39.725 104.936C39.725 105.003 39.7237 105.071 39.721 105.14C39.7184 105.209 39.717 105.279 39.717 105.348C39.7144 105.511 39.7117 105.675 39.709 105.84C39.709 106.003 39.709 106.167 39.709 106.332C39.709 106.383 39.7104 106.437 39.713 106.496C39.7157 106.552 39.7264 106.604 39.745 106.652C39.7744 106.727 39.829 106.78 39.909 106.812C39.9917 106.841 40.0704 106.856 40.145 106.856C40.2277 106.856 40.3104 106.841 40.393 106.812C40.4784 106.78 40.5504 106.735 40.609 106.676C40.6704 106.615 40.705 106.539 40.713 106.448C40.7184 106.403 40.721 106.357 40.721 106.312C40.7237 106.264 40.725 106.217 40.725 106.172L40.721 105.084C40.721 105.049 40.709 105.024 40.685 105.008C40.6637 104.992 40.6384 104.984 40.609 104.984C40.5824 104.984 40.5557 104.985 40.529 104.988C40.505 104.991 40.4797 104.992 40.453 104.992C40.429 104.992 40.417 104.979 40.417 104.952C40.417 104.925 40.429 104.911 40.453 104.908C40.485 104.903 40.5184 104.9 40.553 104.9C40.5877 104.897 40.6224 104.895 40.657 104.892L40.933 104.864C40.9517 104.861 40.9704 104.859 40.989 104.856C41.0104 104.853 41.0304 104.852 41.049 104.852C41.0624 104.852 41.0717 104.86 41.077 104.876C41.0824 104.889 41.085 104.9 41.085 104.908C41.077 105.487 41.073 106.064 41.073 106.64C41.073 106.707 41.0877 106.761 41.117 106.804C41.149 106.847 41.201 106.868 41.273 106.868C41.2944 106.868 41.313 106.865 41.329 106.86C41.3477 106.855 41.3664 106.852 41.385 106.852C41.4144 106.852 41.429 106.865 41.429 106.892ZM42.7368 106.94C42.7368 106.953 42.7328 106.967 42.7248 106.98C42.7168 106.991 42.7061 106.996 42.6928 106.996C42.6181 106.996 42.5434 106.995 42.4688 106.992C42.3968 106.987 42.3221 106.984 42.2448 106.984H42.1368C42.0568 106.984 41.9768 106.987 41.8968 106.992C41.8194 106.995 41.7421 106.996 41.6648 106.996C41.6541 106.996 41.6461 106.989 41.6408 106.976C41.6381 106.963 41.6368 106.952 41.6368 106.944C41.6368 106.931 41.6381 106.921 41.6408 106.916C41.6434 106.908 41.6514 106.903 41.6648 106.9C41.6781 106.895 41.6928 106.893 41.7088 106.896C41.7274 106.896 41.7448 106.896 41.7608 106.896C41.7794 106.896 41.7968 106.897 41.8128 106.9C41.8288 106.9 41.8461 106.9 41.8648 106.9C41.9021 106.9 41.9354 106.892 41.9648 106.876C41.9968 106.857 42.0128 106.827 42.0128 106.784V105.184C42.0128 105.139 42.0048 105.104 41.9888 105.08C41.9728 105.053 41.9394 105.04 41.8888 105.04C41.8514 105.04 41.8128 105.043 41.7728 105.048C41.7354 105.051 41.6981 105.055 41.6608 105.06C41.6394 105.06 41.6288 105.048 41.6288 105.024C41.6288 104.997 41.6394 104.98 41.6608 104.972C41.6928 104.961 41.7261 104.955 41.7608 104.952C41.7981 104.947 41.8328 104.941 41.8648 104.936C41.9394 104.923 42.0141 104.908 42.0888 104.892C42.1634 104.876 42.2368 104.859 42.3088 104.84C42.3168 104.837 42.3274 104.836 42.3408 104.836C42.3701 104.836 42.3848 104.852 42.3848 104.884C42.3848 105.199 42.3834 105.515 42.3808 105.832C42.3808 106.149 42.3808 106.467 42.3808 106.784C42.3808 106.827 42.3994 106.857 42.4368 106.876C42.4768 106.892 42.5141 106.9 42.5488 106.9C42.5754 106.9 42.6021 106.899 42.6288 106.896C42.6581 106.893 42.6861 106.892 42.7128 106.892C42.7234 106.892 42.7301 106.899 42.7328 106.912C42.7354 106.925 42.7368 106.935 42.7368 106.94ZM42.4128 104.172C42.4128 104.239 42.3888 104.296 42.3408 104.344C42.2928 104.389 42.2354 104.412 42.1688 104.412C42.1021 104.412 42.0448 104.389 41.9967 104.344C41.9488 104.296 41.9248 104.239 41.9248 104.172C41.9248 104.105 41.9488 104.049 41.9967 104.004C42.0448 103.956 42.1021 103.932 42.1688 103.932C42.2354 103.932 42.2928 103.956 42.3408 104.004C42.3888 104.049 42.4128 104.105 42.4128 104.172ZM44.4758 105.596C44.4731 105.487 44.4638 105.383 44.4478 105.284C44.4318 105.183 44.3931 105.1 44.3318 105.036C44.2704 104.969 44.1704 104.936 44.0318 104.936C43.9064 104.936 43.8038 104.971 43.7238 105.04C43.6464 105.107 43.5864 105.192 43.5438 105.296C43.5011 105.397 43.4691 105.501 43.4478 105.608C43.5144 105.611 43.5798 105.613 43.6438 105.616C43.7078 105.616 43.7718 105.616 43.8358 105.616C43.9424 105.616 44.0491 105.615 44.1558 105.612C44.2624 105.607 44.3691 105.601 44.4758 105.596ZM44.9358 106.512C44.9358 106.525 44.9331 106.533 44.9278 106.536C44.9198 106.563 44.8998 106.595 44.8678 106.632C44.8384 106.669 44.8051 106.705 44.7678 106.74C44.7304 106.772 44.6998 106.796 44.6758 106.812C44.5878 106.873 44.4878 106.923 44.3758 106.96C44.2664 106.997 44.1571 107.016 44.0478 107.016C43.9571 107.016 43.8558 107.001 43.7438 106.972C43.6344 106.943 43.5411 106.903 43.4638 106.852C43.3144 106.753 43.2051 106.624 43.1358 106.464C43.0664 106.304 43.0318 106.137 43.0318 105.964C43.0318 105.767 43.0704 105.584 43.1478 105.416C43.2251 105.248 43.3491 105.112 43.5198 105.008C43.5971 104.963 43.6838 104.925 43.7798 104.896C43.8758 104.864 43.9678 104.848 44.0558 104.848C44.2131 104.848 44.3518 104.88 44.4718 104.944C44.5918 105.008 44.6851 105.099 44.7518 105.216C44.8211 105.331 44.8558 105.468 44.8558 105.628C44.8558 105.673 44.8451 105.703 44.8238 105.716C44.8051 105.729 44.7758 105.736 44.7358 105.736C44.6824 105.736 44.6291 105.735 44.5758 105.732C44.5224 105.729 44.4691 105.727 44.4158 105.724C44.3411 105.719 44.2664 105.716 44.1918 105.716C44.1198 105.716 44.0464 105.716 43.9718 105.716C43.8811 105.716 43.7904 105.716 43.6998 105.716C43.6091 105.716 43.5184 105.719 43.4278 105.724C43.4251 105.767 43.4224 105.808 43.4198 105.848C43.4171 105.888 43.4158 105.929 43.4158 105.972C43.4158 106.071 43.4278 106.173 43.4518 106.28C43.4758 106.384 43.5144 106.481 43.5678 106.572C43.6211 106.66 43.6891 106.732 43.7718 106.788C43.8544 106.841 43.9544 106.868 44.0718 106.868C44.1918 106.868 44.3064 106.849 44.4158 106.812C44.5251 106.775 44.6251 106.715 44.7158 106.632C44.7398 106.608 44.7611 106.583 44.7798 106.556C44.8011 106.527 44.8238 106.501 44.8478 106.48C44.8611 106.467 44.8758 106.46 44.8918 106.46C44.9051 106.46 44.9158 106.465 44.9238 106.476C44.9318 106.487 44.9358 106.499 44.9358 106.512ZM47.4914 106.94C47.4914 106.975 47.4714 106.992 47.4314 106.992C47.3728 106.992 47.3128 106.991 47.2514 106.988C47.1901 106.983 47.1288 106.98 47.0674 106.98C46.9768 106.98 46.8834 106.983 46.7874 106.988C46.6941 106.991 46.6008 106.992 46.5074 106.992C46.4968 106.992 46.4901 106.984 46.4874 106.968C46.4848 106.949 46.4834 106.935 46.4834 106.924C46.4834 106.903 46.4968 106.892 46.5234 106.892C46.5501 106.892 46.5714 106.892 46.5874 106.892C46.6008 106.892 46.6141 106.893 46.6274 106.896C46.6434 106.896 46.6581 106.896 46.6714 106.896C46.7488 106.896 46.7914 106.857 46.7994 106.78C46.8074 106.623 46.8101 106.464 46.8074 106.304C46.8074 106.144 46.8074 105.985 46.8074 105.828C46.8074 105.799 46.8074 105.769 46.8074 105.74C46.8074 105.708 46.8074 105.677 46.8074 105.648C46.8048 105.587 46.8008 105.512 46.7954 105.424C46.7901 105.333 46.7781 105.26 46.7594 105.204C46.7168 105.065 46.6234 104.996 46.4794 104.996C46.3488 104.996 46.2288 105.029 46.1194 105.096C46.0101 105.163 45.9154 105.247 45.8354 105.348C45.8328 105.543 45.8314 105.736 45.8314 105.928C45.8314 106.12 45.8314 106.312 45.8314 106.504V106.78C45.8314 106.82 45.8488 106.849 45.8834 106.868C45.9181 106.887 45.9528 106.896 45.9874 106.896C46.0088 106.896 46.0288 106.895 46.0474 106.892C46.0688 106.887 46.0888 106.884 46.1074 106.884C46.1181 106.884 46.1248 106.891 46.1274 106.904C46.1301 106.917 46.1314 106.928 46.1314 106.936C46.1314 106.947 46.1274 106.959 46.1194 106.972C46.1141 106.985 46.1034 106.992 46.0874 106.992C46.0288 106.992 45.9701 106.991 45.9114 106.988C45.8554 106.983 45.7981 106.98 45.7394 106.98C45.6488 106.98 45.5581 106.983 45.4674 106.988C45.3768 106.991 45.2848 106.992 45.1914 106.992C45.1781 106.992 45.1701 106.984 45.1674 106.968C45.1674 106.949 45.1674 106.935 45.1674 106.924C45.1674 106.903 45.1794 106.892 45.2034 106.892C45.2274 106.892 45.2461 106.892 45.2594 106.892C45.2728 106.892 45.2861 106.893 45.2994 106.896C45.3128 106.896 45.3261 106.896 45.3394 106.896C45.4168 106.896 45.4594 106.857 45.4674 106.78C45.4701 106.743 45.4714 106.705 45.4714 106.668C45.4714 106.631 45.4714 106.593 45.4714 106.556C45.4714 106.327 45.4714 106.097 45.4714 105.868C45.4714 105.636 45.4701 105.405 45.4674 105.176C45.4674 105.139 45.4594 105.101 45.4434 105.064C45.4274 105.027 45.3968 105.008 45.3514 105.008C45.3168 105.008 45.2834 105.013 45.2514 105.024C45.2194 105.035 45.1861 105.04 45.1514 105.04C45.1328 105.04 45.1234 105.027 45.1234 105C45.1234 104.995 45.1234 104.989 45.1234 104.984C45.1261 104.976 45.1288 104.971 45.1314 104.968C45.1341 104.965 45.1381 104.964 45.1434 104.964C45.1488 104.961 45.1528 104.959 45.1554 104.956C45.2034 104.943 45.2528 104.933 45.3034 104.928C45.3568 104.923 45.4074 104.915 45.4554 104.904C45.5008 104.896 45.5448 104.885 45.5874 104.872C45.6301 104.856 45.6728 104.848 45.7154 104.848C45.7341 104.848 45.7488 104.857 45.7594 104.876C45.7728 104.9 45.7834 104.935 45.7914 104.98C45.7994 105.023 45.8048 105.067 45.8074 105.112C45.8128 105.157 45.8154 105.195 45.8154 105.224C45.8741 105.165 45.9434 105.108 46.0234 105.052C46.1061 104.993 46.1914 104.945 46.2794 104.908C46.3701 104.868 46.4581 104.848 46.5434 104.848C46.7888 104.848 46.9541 104.903 47.0394 105.012C47.1274 105.119 47.1714 105.288 47.1714 105.52C47.1714 105.728 47.1701 105.936 47.1674 106.144C47.1674 106.352 47.1674 106.56 47.1674 106.768C47.1674 106.819 47.1821 106.853 47.2114 106.872C47.2434 106.888 47.2808 106.896 47.3234 106.896C47.3448 106.896 47.3661 106.895 47.3874 106.892C47.4088 106.887 47.4288 106.884 47.4474 106.884C47.4634 106.884 47.4741 106.891 47.4794 106.904C47.4874 106.915 47.4914 106.927 47.4914 106.94ZM49.2068 105.532C49.2068 105.441 49.1881 105.356 49.1508 105.276C49.1134 105.196 49.0601 105.131 48.9908 105.08C48.9214 105.029 48.8374 105.004 48.7388 105.004C48.6108 105.004 48.5054 105.035 48.4228 105.096C48.3428 105.157 48.2788 105.237 48.2308 105.336C48.1854 105.432 48.1534 105.536 48.1348 105.648C48.1188 105.76 48.1108 105.867 48.1108 105.968C48.1108 106.059 48.1188 106.156 48.1348 106.26C48.1508 106.364 48.1788 106.461 48.2188 106.552C48.2614 106.643 48.3201 106.717 48.3948 106.776C48.4694 106.832 48.5641 106.86 48.6788 106.86C48.7748 106.86 48.8628 106.831 48.9428 106.772C49.0228 106.711 49.0868 106.635 49.1348 106.544C49.1828 106.453 49.2068 106.364 49.2068 106.276V105.532ZM49.9508 106.84C49.9508 106.853 49.9441 106.867 49.9308 106.88C49.9174 106.893 49.9054 106.904 49.8948 106.912C49.8601 106.939 49.8094 106.961 49.7428 106.98C49.6788 106.999 49.6241 107.008 49.5788 107.008C49.5094 107.008 49.4521 106.988 49.4068 106.948C49.3614 106.908 49.3241 106.859 49.2948 106.8C49.2681 106.741 49.2441 106.684 49.2228 106.628C49.1641 106.721 49.0841 106.805 48.9828 106.88C48.8814 106.952 48.7734 106.988 48.6588 106.988C48.5814 106.988 48.5014 106.983 48.4188 106.972C48.3388 106.959 48.2641 106.931 48.1948 106.888C48.0428 106.792 47.9268 106.663 47.8468 106.5C47.7694 106.335 47.7308 106.165 47.7308 105.992C47.7308 105.784 47.7681 105.597 47.8428 105.432C47.9174 105.264 48.0281 105.132 48.1748 105.036C48.3241 104.937 48.5081 104.888 48.7268 104.888C48.7748 104.888 48.8281 104.897 48.8868 104.916C48.9454 104.935 49.0028 104.959 49.0588 104.988C49.1174 105.015 49.1641 105.043 49.1988 105.072V104.296C49.1988 104.211 49.1761 104.163 49.1308 104.152C49.0881 104.139 49.0308 104.132 48.9588 104.132C48.9348 104.132 48.9108 104.133 48.8868 104.136C48.8628 104.136 48.8388 104.136 48.8148 104.136C48.8041 104.136 48.7934 104.132 48.7828 104.124C48.7748 104.116 48.7708 104.107 48.7708 104.096C48.7708 104.077 48.7774 104.065 48.7908 104.06C48.7961 104.055 48.8014 104.052 48.8068 104.052C48.8148 104.052 48.8228 104.051 48.8308 104.048C48.8868 104.037 48.9428 104.029 48.9988 104.024C49.0574 104.016 49.1161 104.007 49.1748 103.996C49.2334 103.985 49.2908 103.975 49.3468 103.964C49.4028 103.951 49.4588 103.936 49.5148 103.92C49.5174 103.92 49.5214 103.919 49.5268 103.916C49.5348 103.913 49.5401 103.912 49.5428 103.912C49.5561 103.912 49.5641 103.917 49.5668 103.928C49.5694 103.939 49.5708 103.949 49.5708 103.96C49.5708 104.291 49.5694 104.62 49.5668 104.948C49.5641 105.276 49.5628 105.605 49.5628 105.936V106.532C49.5628 106.577 49.5681 106.624 49.5788 106.672C49.5894 106.72 49.6094 106.76 49.6388 106.792C49.6708 106.824 49.7148 106.84 49.7708 106.84C49.7974 106.84 49.8228 106.835 49.8468 106.824C49.8708 106.813 49.8961 106.808 49.9228 106.808C49.9414 106.808 49.9508 106.819 49.9508 106.84ZM51.8606 105.944C51.8606 105.829 51.8512 105.715 51.8326 105.6C51.8166 105.483 51.7846 105.375 51.7366 105.276C51.6912 105.177 51.6246 105.099 51.5366 105.04C51.4486 104.979 51.3339 104.948 51.1926 104.948C51.0592 104.948 50.9499 104.98 50.8646 105.044C50.7819 105.108 50.7166 105.191 50.6686 105.292C50.6232 105.393 50.5912 105.503 50.5726 105.62C50.5566 105.737 50.5486 105.848 50.5486 105.952C50.5486 106.067 50.5566 106.181 50.5726 106.296C50.5912 106.411 50.6246 106.515 50.6726 106.608C50.7206 106.699 50.7886 106.772 50.8766 106.828C50.9672 106.884 51.0832 106.912 51.2246 106.912C51.3632 106.912 51.4739 106.883 51.5566 106.824C51.6419 106.765 51.7059 106.688 51.7486 106.592C51.7939 106.496 51.8232 106.392 51.8366 106.28C51.8526 106.165 51.8606 106.053 51.8606 105.944ZM52.2726 105.956C52.2726 106.156 52.2246 106.336 52.1286 106.496C52.0352 106.656 51.9072 106.783 51.7446 106.876C51.5846 106.969 51.4046 107.016 51.2046 107.016C51.0099 107.016 50.8339 106.969 50.6766 106.876C50.5192 106.78 50.3939 106.653 50.3006 106.496C50.2072 106.336 50.1606 106.159 50.1606 105.964C50.1606 105.764 50.2059 105.58 50.2966 105.412C50.3872 105.241 50.5112 105.104 50.6686 105C50.8286 104.896 51.0126 104.844 51.2206 104.844C51.4446 104.844 51.6352 104.892 51.7926 104.988C51.9499 105.081 52.0686 105.212 52.1486 105.38C52.2312 105.545 52.2726 105.737 52.2726 105.956ZM54.717 106.948C54.717 106.961 54.713 106.975 54.705 106.988C54.6997 106.999 54.689 107.004 54.673 107.004C54.5904 107.004 54.5064 107.003 54.421 107C54.3357 106.995 54.2504 106.992 54.165 106.992H54.025C53.969 106.992 53.913 106.995 53.857 107C53.801 107.003 53.745 107.004 53.689 107.004C53.6784 107.004 53.6704 107 53.665 106.992C53.6624 106.981 53.661 106.972 53.661 106.964C53.661 106.956 53.661 106.948 53.661 106.94C53.661 106.932 53.6624 106.924 53.665 106.916C53.6704 106.905 53.685 106.9 53.709 106.9C53.7357 106.897 53.7624 106.897 53.789 106.9C53.8184 106.9 53.837 106.9 53.845 106.9C53.8824 106.9 53.9157 106.892 53.945 106.876C53.9744 106.857 53.989 106.827 53.989 106.784C53.989 106.579 53.9904 106.375 53.993 106.172C53.9957 105.967 53.997 105.763 53.997 105.56C53.997 105.352 53.9957 105.144 53.993 104.936C53.993 104.725 53.993 104.516 53.993 104.308C53.993 104.289 53.9917 104.269 53.989 104.248C53.9864 104.224 53.9784 104.205 53.965 104.192C53.9544 104.179 53.9437 104.172 53.933 104.172C53.9224 104.169 53.909 104.168 53.893 104.168C53.845 104.168 53.797 104.176 53.749 104.192C53.7037 104.208 53.6584 104.216 53.613 104.216C53.5837 104.216 53.569 104.199 53.569 104.164C53.569 104.143 53.585 104.128 53.617 104.12C53.6517 104.112 53.6784 104.107 53.697 104.104C53.7904 104.083 53.8917 104.059 54.001 104.032C54.1104 104.005 54.209 103.975 54.297 103.94C54.3024 103.94 54.3077 103.939 54.313 103.936C54.3184 103.933 54.3224 103.932 54.325 103.932C54.341 103.932 54.3504 103.937 54.353 103.948C54.3584 103.959 54.361 103.971 54.361 103.984C54.361 104.059 54.3597 104.133 54.357 104.208C54.357 104.28 54.357 104.353 54.357 104.428V105.548C54.357 105.753 54.3584 105.96 54.361 106.168C54.3637 106.373 54.365 106.579 54.365 106.784C54.365 106.827 54.3824 106.857 54.417 106.876C54.4544 106.892 54.4904 106.9 54.525 106.9C54.5544 106.9 54.5824 106.899 54.609 106.896C54.6357 106.893 54.6624 106.892 54.689 106.892C54.7024 106.892 54.7104 106.9 54.713 106.916C54.7157 106.929 54.717 106.94 54.717 106.948ZM56.2878 106.532C56.2772 106.412 56.2705 106.292 56.2678 106.172C56.2678 106.049 56.2665 105.927 56.2638 105.804H56.2078C56.1252 105.804 56.0332 105.817 55.9318 105.844C55.8332 105.868 55.7385 105.905 55.6478 105.956C55.5572 106.007 55.4825 106.071 55.4238 106.148C55.3678 106.223 55.3398 106.309 55.3398 106.408C55.3398 106.536 55.3758 106.633 55.4478 106.7C55.5198 106.764 55.6172 106.796 55.7398 106.796C55.7985 106.796 55.8625 106.783 55.9318 106.756C56.0012 106.727 56.0678 106.692 56.1318 106.652C56.1958 106.612 56.2478 106.572 56.2878 106.532ZM56.9878 106.788C56.9878 106.799 56.9865 106.807 56.9838 106.812C56.9572 106.871 56.9118 106.916 56.8478 106.948C56.7865 106.977 56.7252 106.992 56.6638 106.992C56.5518 106.992 56.4705 106.96 56.4198 106.896C56.3718 106.829 56.3332 106.748 56.3038 106.652C56.2025 106.745 56.0905 106.824 55.9678 106.888C55.8452 106.949 55.7132 106.98 55.5718 106.98C55.4732 106.98 55.3798 106.961 55.2918 106.924C55.2065 106.884 55.1372 106.827 55.0838 106.752C55.0305 106.677 55.0038 106.587 55.0038 106.48C55.0038 106.368 55.0318 106.272 55.0878 106.192C55.1465 106.109 55.2198 106.04 55.3078 105.984C55.3985 105.925 55.4945 105.879 55.5958 105.844C55.6998 105.807 55.7972 105.779 55.8878 105.76C55.9492 105.747 56.0118 105.735 56.0758 105.724C56.1398 105.713 56.2025 105.703 56.2638 105.692C56.2638 105.617 56.2598 105.531 56.2518 105.432C56.2465 105.333 56.2265 105.252 56.1918 105.188C56.1572 105.127 56.1105 105.072 56.0518 105.024C55.9932 104.976 55.9278 104.952 55.8558 104.952C55.7332 104.952 55.6372 104.984 55.5678 105.048C55.4985 105.112 55.4492 105.203 55.4198 105.32C55.4172 105.333 55.4145 105.348 55.4118 105.364C55.4118 105.377 55.4105 105.391 55.4078 105.404C55.4052 105.42 55.3945 105.435 55.3758 105.448C55.3598 105.459 55.3425 105.464 55.3238 105.464C55.2732 105.464 55.2265 105.452 55.1838 105.428C55.1438 105.404 55.1238 105.364 55.1238 105.308C55.1238 105.276 55.1292 105.248 55.1398 105.224C55.1745 105.141 55.2305 105.073 55.3078 105.02C55.3852 104.964 55.4705 104.921 55.5638 104.892C55.6598 104.863 55.7492 104.848 55.8318 104.848C55.9758 104.848 56.1065 104.875 56.2238 104.928C56.3412 104.981 56.4345 105.06 56.5038 105.164C56.5758 105.265 56.6118 105.393 56.6118 105.548C56.6118 105.721 56.6105 105.896 56.6078 106.072C56.6078 106.248 56.6132 106.424 56.6238 106.6C56.6265 106.659 56.6385 106.711 56.6598 106.756C56.6812 106.799 56.7252 106.82 56.7918 106.82C56.8265 106.82 56.8625 106.812 56.8998 106.796C56.9398 106.777 56.9652 106.768 56.9758 106.768C56.9838 106.768 56.9878 106.775 56.9878 106.788ZM59.2756 106.948C59.2756 106.961 59.2716 106.975 59.2636 106.988C59.2583 106.999 59.2476 107.004 59.2316 107.004C59.149 107.004 59.065 107.003 58.9796 107C58.8943 106.995 58.809 106.992 58.7236 106.992H58.5836C58.5276 106.992 58.4716 106.995 58.4156 107C58.3596 107.003 58.3036 107.004 58.2476 107.004C58.237 107.004 58.229 107 58.2236 106.992C58.221 106.981 58.2196 106.972 58.2196 106.964C58.2196 106.956 58.2196 106.948 58.2196 106.94C58.2196 106.932 58.221 106.924 58.2236 106.916C58.229 106.905 58.2436 106.9 58.2676 106.9C58.2943 106.897 58.321 106.897 58.3476 106.9C58.377 106.9 58.3956 106.9 58.4036 106.9C58.441 106.9 58.4743 106.892 58.5036 106.876C58.533 106.857 58.5476 106.827 58.5476 106.784C58.5476 106.579 58.549 106.375 58.5516 106.172C58.5543 105.967 58.5556 105.763 58.5556 105.56C58.5556 105.352 58.5543 105.144 58.5516 104.936C58.5516 104.725 58.5516 104.516 58.5516 104.308C58.5516 104.289 58.5503 104.269 58.5476 104.248C58.545 104.224 58.537 104.205 58.5236 104.192C58.513 104.179 58.5023 104.172 58.4916 104.172C58.481 104.169 58.4676 104.168 58.4516 104.168C58.4036 104.168 58.3556 104.176 58.3076 104.192C58.2623 104.208 58.217 104.216 58.1716 104.216C58.1423 104.216 58.1276 104.199 58.1276 104.164C58.1276 104.143 58.1436 104.128 58.1756 104.12C58.2103 104.112 58.237 104.107 58.2556 104.104C58.349 104.083 58.4503 104.059 58.5596 104.032C58.669 104.005 58.7676 103.975 58.8556 103.94C58.861 103.94 58.8663 103.939 58.8716 103.936C58.877 103.933 58.881 103.932 58.8836 103.932C58.8996 103.932 58.909 103.937 58.9116 103.948C58.917 103.959 58.9196 103.971 58.9196 103.984C58.9196 104.059 58.9183 104.133 58.9156 104.208C58.9156 104.28 58.9156 104.353 58.9156 104.428V105.548C58.9156 105.753 58.917 105.96 58.9196 106.168C58.9223 106.373 58.9236 106.579 58.9236 106.784C58.9236 106.827 58.941 106.857 58.9756 106.876C59.013 106.892 59.049 106.9 59.0836 106.9C59.113 106.9 59.141 106.899 59.1676 106.896C59.1943 106.893 59.221 106.892 59.2476 106.892C59.261 106.892 59.269 106.9 59.2716 106.916C59.2743 106.929 59.2756 106.94 59.2756 106.948ZM60.6664 106.94C60.6664 106.953 60.6624 106.967 60.6544 106.98C60.6464 106.991 60.6358 106.996 60.6224 106.996C60.5478 106.996 60.4731 106.995 60.3984 106.992C60.3264 106.987 60.2518 106.984 60.1744 106.984H60.0664C59.9864 106.984 59.9064 106.987 59.8264 106.992C59.7491 106.995 59.6718 106.996 59.5944 106.996C59.5838 106.996 59.5758 106.989 59.5704 106.976C59.5678 106.963 59.5664 106.952 59.5664 106.944C59.5664 106.931 59.5678 106.921 59.5704 106.916C59.5731 106.908 59.5811 106.903 59.5944 106.9C59.6078 106.895 59.6224 106.893 59.6384 106.896C59.6571 106.896 59.6744 106.896 59.6904 106.896C59.7091 106.896 59.7264 106.897 59.7424 106.9C59.7584 106.9 59.7758 106.9 59.7944 106.9C59.8318 106.9 59.8651 106.892 59.8944 106.876C59.9264 106.857 59.9424 106.827 59.9424 106.784V105.184C59.9424 105.139 59.9344 105.104 59.9184 105.08C59.9024 105.053 59.8691 105.04 59.8184 105.04C59.7811 105.04 59.7424 105.043 59.7024 105.048C59.6651 105.051 59.6278 105.055 59.5904 105.06C59.5691 105.06 59.5584 105.048 59.5584 105.024C59.5584 104.997 59.5691 104.98 59.5904 104.972C59.6224 104.961 59.6558 104.955 59.6904 104.952C59.7278 104.947 59.7624 104.941 59.7944 104.936C59.8691 104.923 59.9438 104.908 60.0184 104.892C60.0931 104.876 60.1664 104.859 60.2384 104.84C60.2464 104.837 60.2571 104.836 60.2704 104.836C60.2998 104.836 60.3144 104.852 60.3144 104.884C60.3144 105.199 60.3131 105.515 60.3104 105.832C60.3104 106.149 60.3104 106.467 60.3104 106.784C60.3104 106.827 60.3291 106.857 60.3664 106.876C60.4064 106.892 60.4438 106.9 60.4784 106.9C60.5051 106.9 60.5318 106.899 60.5584 106.896C60.5878 106.893 60.6158 106.892 60.6424 106.892C60.6531 106.892 60.6598 106.899 60.6624 106.912C60.6651 106.925 60.6664 106.935 60.6664 106.94ZM60.3424 104.172C60.3424 104.239 60.3184 104.296 60.2704 104.344C60.2224 104.389 60.1651 104.412 60.0984 104.412C60.0318 104.412 59.9744 104.389 59.9264 104.344C59.8784 104.296 59.8544 104.239 59.8544 104.172C59.8544 104.105 59.8784 104.049 59.9264 104.004C59.9744 103.956 60.0318 103.932 60.0984 103.932C60.1651 103.932 60.2224 103.956 60.2704 104.004C60.3184 104.049 60.3424 104.105 60.3424 104.172ZM63.2414 106.94C63.2414 106.975 63.2214 106.992 63.1814 106.992C63.1228 106.992 63.0628 106.991 63.0014 106.988C62.9401 106.983 62.8788 106.98 62.8174 106.98C62.7268 106.98 62.6334 106.983 62.5374 106.988C62.4441 106.991 62.3508 106.992 62.2574 106.992C62.2468 106.992 62.2401 106.984 62.2374 106.968C62.2348 106.949 62.2334 106.935 62.2334 106.924C62.2334 106.903 62.2468 106.892 62.2734 106.892C62.3001 106.892 62.3214 106.892 62.3374 106.892C62.3508 106.892 62.3641 106.893 62.3774 106.896C62.3934 106.896 62.4081 106.896 62.4214 106.896C62.4988 106.896 62.5414 106.857 62.5494 106.78C62.5574 106.623 62.5601 106.464 62.5574 106.304C62.5574 106.144 62.5574 105.985 62.5574 105.828C62.5574 105.799 62.5574 105.769 62.5574 105.74C62.5574 105.708 62.5574 105.677 62.5574 105.648C62.5548 105.587 62.5508 105.512 62.5454 105.424C62.5401 105.333 62.5281 105.26 62.5094 105.204C62.4668 105.065 62.3734 104.996 62.2294 104.996C62.0988 104.996 61.9788 105.029 61.8694 105.096C61.7601 105.163 61.6654 105.247 61.5854 105.348C61.5828 105.543 61.5814 105.736 61.5814 105.928C61.5814 106.12 61.5814 106.312 61.5814 106.504V106.78C61.5814 106.82 61.5988 106.849 61.6334 106.868C61.6681 106.887 61.7028 106.896 61.7374 106.896C61.7588 106.896 61.7788 106.895 61.7974 106.892C61.8188 106.887 61.8388 106.884 61.8574 106.884C61.8681 106.884 61.8748 106.891 61.8774 106.904C61.8801 106.917 61.8814 106.928 61.8814 106.936C61.8814 106.947 61.8774 106.959 61.8694 106.972C61.8641 106.985 61.8534 106.992 61.8374 106.992C61.7788 106.992 61.7201 106.991 61.6614 106.988C61.6054 106.983 61.5481 106.98 61.4894 106.98C61.3988 106.98 61.3081 106.983 61.2174 106.988C61.1268 106.991 61.0348 106.992 60.9414 106.992C60.9281 106.992 60.9201 106.984 60.9174 106.968C60.9174 106.949 60.9174 106.935 60.9174 106.924C60.9174 106.903 60.9294 106.892 60.9534 106.892C60.9774 106.892 60.9961 106.892 61.0094 106.892C61.0228 106.892 61.0361 106.893 61.0494 106.896C61.0628 106.896 61.0761 106.896 61.0894 106.896C61.1668 106.896 61.2094 106.857 61.2174 106.78C61.2201 106.743 61.2214 106.705 61.2214 106.668C61.2214 106.631 61.2214 106.593 61.2214 106.556C61.2214 106.327 61.2214 106.097 61.2214 105.868C61.2214 105.636 61.2201 105.405 61.2174 105.176C61.2174 105.139 61.2094 105.101 61.1934 105.064C61.1774 105.027 61.1468 105.008 61.1014 105.008C61.0668 105.008 61.0334 105.013 61.0014 105.024C60.9694 105.035 60.9361 105.04 60.9014 105.04C60.8828 105.04 60.8734 105.027 60.8734 105C60.8734 104.995 60.8734 104.989 60.8734 104.984C60.8761 104.976 60.8788 104.971 60.8814 104.968C60.8841 104.965 60.8881 104.964 60.8934 104.964C60.8988 104.961 60.9028 104.959 60.9054 104.956C60.9534 104.943 61.0028 104.933 61.0534 104.928C61.1068 104.923 61.1574 104.915 61.2054 104.904C61.2508 104.896 61.2948 104.885 61.3374 104.872C61.3801 104.856 61.4228 104.848 61.4654 104.848C61.4841 104.848 61.4988 104.857 61.5094 104.876C61.5228 104.9 61.5334 104.935 61.5414 104.98C61.5494 105.023 61.5548 105.067 61.5574 105.112C61.5628 105.157 61.5654 105.195 61.5654 105.224C61.6241 105.165 61.6934 105.108 61.7734 105.052C61.8561 104.993 61.9414 104.945 62.0294 104.908C62.1201 104.868 62.2081 104.848 62.2934 104.848C62.5388 104.848 62.7041 104.903 62.7894 105.012C62.8774 105.119 62.9214 105.288 62.9214 105.52C62.9214 105.728 62.9201 105.936 62.9174 106.144C62.9174 106.352 62.9174 106.56 62.9174 106.768C62.9174 106.819 62.9321 106.853 62.9614 106.872C62.9934 106.888 63.0308 106.896 63.0734 106.896C63.0948 106.896 63.1161 106.895 63.1374 106.892C63.1588 106.887 63.1788 106.884 63.1974 106.884C63.2134 106.884 63.2241 106.891 63.2294 106.904C63.2374 106.915 63.2414 106.927 63.2414 106.94ZM64.9328 105.596C64.9301 105.487 64.9208 105.383 64.9048 105.284C64.8888 105.183 64.8501 105.1 64.7888 105.036C64.7274 104.969 64.6274 104.936 64.4888 104.936C64.3634 104.936 64.2608 104.971 64.1808 105.04C64.1034 105.107 64.0434 105.192 64.0008 105.296C63.9581 105.397 63.9261 105.501 63.9048 105.608C63.9714 105.611 64.0368 105.613 64.1008 105.616C64.1648 105.616 64.2288 105.616 64.2928 105.616C64.3994 105.616 64.5061 105.615 64.6128 105.612C64.7194 105.607 64.8261 105.601 64.9328 105.596ZM65.3928 106.512C65.3928 106.525 65.3901 106.533 65.3848 106.536C65.3768 106.563 65.3568 106.595 65.3248 106.632C65.2954 106.669 65.2621 106.705 65.2248 106.74C65.1874 106.772 65.1568 106.796 65.1328 106.812C65.0448 106.873 64.9448 106.923 64.8328 106.96C64.7234 106.997 64.6141 107.016 64.5048 107.016C64.4141 107.016 64.3128 107.001 64.2008 106.972C64.0914 106.943 63.9981 106.903 63.9208 106.852C63.7714 106.753 63.6621 106.624 63.5928 106.464C63.5234 106.304 63.4888 106.137 63.4888 105.964C63.4888 105.767 63.5274 105.584 63.6048 105.416C63.6821 105.248 63.8061 105.112 63.9768 105.008C64.0541 104.963 64.1408 104.925 64.2368 104.896C64.3328 104.864 64.4248 104.848 64.5128 104.848C64.6701 104.848 64.8088 104.88 64.9288 104.944C65.0488 105.008 65.1421 105.099 65.2088 105.216C65.2781 105.331 65.3128 105.468 65.3128 105.628C65.3128 105.673 65.3021 105.703 65.2808 105.716C65.2621 105.729 65.2328 105.736 65.1928 105.736C65.1394 105.736 65.0861 105.735 65.0328 105.732C64.9794 105.729 64.9261 105.727 64.8728 105.724C64.7981 105.719 64.7234 105.716 64.6488 105.716C64.5768 105.716 64.5034 105.716 64.4288 105.716C64.3381 105.716 64.2474 105.716 64.1568 105.716C64.0661 105.716 63.9754 105.719 63.8848 105.724C63.8821 105.767 63.8794 105.808 63.8768 105.848C63.8741 105.888 63.8728 105.929 63.8728 105.972C63.8728 106.071 63.8848 106.173 63.9088 106.28C63.9328 106.384 63.9714 106.481 64.0248 106.572C64.0781 106.66 64.1461 106.732 64.2288 106.788C64.3114 106.841 64.4114 106.868 64.5288 106.868C64.6488 106.868 64.7634 106.849 64.8728 106.812C64.9821 106.775 65.0821 106.715 65.1728 106.632C65.1968 106.608 65.2181 106.583 65.2368 106.556C65.2581 106.527 65.2808 106.501 65.3048 106.48C65.3181 106.467 65.3328 106.46 65.3488 106.46C65.3621 106.46 65.3728 106.465 65.3808 106.476C65.3888 106.487 65.3928 106.499 65.3928 106.512ZM66.9285 106.532C66.9178 106.412 66.9111 106.292 66.9085 106.172C66.9085 106.049 66.9071 105.927 66.9045 105.804H66.8485C66.7658 105.804 66.6738 105.817 66.5725 105.844C66.4738 105.868 66.3791 105.905 66.2885 105.956C66.1978 106.007 66.1231 106.071 66.0645 106.148C66.0085 106.223 65.9805 106.309 65.9805 106.408C65.9805 106.536 66.0165 106.633 66.0885 106.7C66.1605 106.764 66.2578 106.796 66.3805 106.796C66.4391 106.796 66.5031 106.783 66.5725 106.756C66.6418 106.727 66.7085 106.692 66.7725 106.652C66.8365 106.612 66.8885 106.572 66.9285 106.532ZM67.6285 106.788C67.6285 106.799 67.6271 106.807 67.6245 106.812C67.5978 106.871 67.5525 106.916 67.4885 106.948C67.4271 106.977 67.3658 106.992 67.3045 106.992C67.1925 106.992 67.1111 106.96 67.0605 106.896C67.0125 106.829 66.9738 106.748 66.9445 106.652C66.8431 106.745 66.7311 106.824 66.6085 106.888C66.4858 106.949 66.3538 106.98 66.2125 106.98C66.1138 106.98 66.0205 106.961 65.9325 106.924C65.8471 106.884 65.7778 106.827 65.7245 106.752C65.6711 106.677 65.6445 106.587 65.6445 106.48C65.6445 106.368 65.6725 106.272 65.7285 106.192C65.7871 106.109 65.8605 106.04 65.9485 105.984C66.0391 105.925 66.1351 105.879 66.2365 105.844C66.3405 105.807 66.4378 105.779 66.5285 105.76C66.5898 105.747 66.6525 105.735 66.7165 105.724C66.7805 105.713 66.8431 105.703 66.9045 105.692C66.9045 105.617 66.9005 105.531 66.8925 105.432C66.8871 105.333 66.8671 105.252 66.8325 105.188C66.7978 105.127 66.7511 105.072 66.6925 105.024C66.6338 104.976 66.5685 104.952 66.4965 104.952C66.3738 104.952 66.2778 104.984 66.2085 105.048C66.1391 105.112 66.0898 105.203 66.0605 105.32C66.0578 105.333 66.0551 105.348 66.0525 105.364C66.0525 105.377 66.0511 105.391 66.0485 105.404C66.0458 105.42 66.0351 105.435 66.0165 105.448C66.0005 105.459 65.9831 105.464 65.9645 105.464C65.9138 105.464 65.8671 105.452 65.8245 105.428C65.7845 105.404 65.7645 105.364 65.7645 105.308C65.7645 105.276 65.7698 105.248 65.7805 105.224C65.8151 105.141 65.8711 105.073 65.9485 105.02C66.0258 104.964 66.1111 104.921 66.2045 104.892C66.3005 104.863 66.3898 104.848 66.4725 104.848C66.6165 104.848 66.7471 104.875 66.8645 104.928C66.9818 104.981 67.0751 105.06 67.1445 105.164C67.2165 105.265 67.2525 105.393 67.2525 105.548C67.2525 105.721 67.2511 105.896 67.2485 106.072C67.2485 106.248 67.2538 106.424 67.2645 106.6C67.2671 106.659 67.2791 106.711 67.3005 106.756C67.3218 106.799 67.3658 106.82 67.4325 106.82C67.4671 106.82 67.5031 106.812 67.5405 106.796C67.5805 106.777 67.6058 106.768 67.6165 106.768C67.6245 106.768 67.6285 106.775 67.6285 106.788ZM70.3123 105.532C70.3123 105.441 70.2936 105.356 70.2563 105.276C70.2189 105.196 70.1656 105.131 70.0963 105.08C70.0269 105.029 69.9429 105.004 69.8443 105.004C69.7163 105.004 69.6109 105.035 69.5283 105.096C69.4483 105.157 69.3843 105.237 69.3363 105.336C69.2909 105.432 69.2589 105.536 69.2403 105.648C69.2243 105.76 69.2163 105.867 69.2163 105.968C69.2163 106.059 69.2243 106.156 69.2403 106.26C69.2563 106.364 69.2843 106.461 69.3243 106.552C69.3669 106.643 69.4256 106.717 69.5003 106.776C69.5749 106.832 69.6696 106.86 69.7843 106.86C69.8803 106.86 69.9683 106.831 70.0483 106.772C70.1283 106.711 70.1923 106.635 70.2403 106.544C70.2883 106.453 70.3123 106.364 70.3123 106.276V105.532ZM71.0563 106.84C71.0563 106.853 71.0496 106.867 71.0363 106.88C71.0229 106.893 71.0109 106.904 71.0003 106.912C70.9656 106.939 70.9149 106.961 70.8483 106.98C70.7843 106.999 70.7296 107.008 70.6843 107.008C70.6149 107.008 70.5576 106.988 70.5123 106.948C70.4669 106.908 70.4296 106.859 70.4003 106.8C70.3736 106.741 70.3496 106.684 70.3283 106.628C70.2696 106.721 70.1896 106.805 70.0883 106.88C69.9869 106.952 69.8789 106.988 69.7643 106.988C69.6869 106.988 69.6069 106.983 69.5243 106.972C69.4443 106.959 69.3696 106.931 69.3003 106.888C69.1483 106.792 69.0323 106.663 68.9523 106.5C68.8749 106.335 68.8363 106.165 68.8363 105.992C68.8363 105.784 68.8736 105.597 68.9483 105.432C69.0229 105.264 69.1336 105.132 69.2803 105.036C69.4296 104.937 69.6136 104.888 69.8322 104.888C69.8803 104.888 69.9336 104.897 69.9923 104.916C70.0509 104.935 70.1083 104.959 70.1643 104.988C70.2229 105.015 70.2696 105.043 70.3043 105.072V104.296C70.3043 104.211 70.2816 104.163 70.2363 104.152C70.1936 104.139 70.1363 104.132 70.0643 104.132C70.0403 104.132 70.0163 104.133 69.9923 104.136C69.9683 104.136 69.9443 104.136 69.9203 104.136C69.9096 104.136 69.8989 104.132 69.8883 104.124C69.8803 104.116 69.8763 104.107 69.8763 104.096C69.8763 104.077 69.8829 104.065 69.8963 104.06C69.9016 104.055 69.9069 104.052 69.9123 104.052C69.9203 104.052 69.9283 104.051 69.9363 104.048C69.9923 104.037 70.0483 104.029 70.1043 104.024C70.1629 104.016 70.2216 104.007 70.2803 103.996C70.3389 103.985 70.3963 103.975 70.4523 103.964C70.5083 103.951 70.5643 103.936 70.6203 103.92C70.6229 103.92 70.6269 103.919 70.6323 103.916C70.6403 103.913 70.6456 103.912 70.6483 103.912C70.6616 103.912 70.6696 103.917 70.6723 103.928C70.6749 103.939 70.6762 103.949 70.6762 103.96C70.6762 104.291 70.6749 104.62 70.6723 104.948C70.6696 105.276 70.6683 105.605 70.6683 105.936V106.532C70.6683 106.577 70.6736 106.624 70.6843 106.672C70.6949 106.72 70.7149 106.76 70.7443 106.792C70.7763 106.824 70.8203 106.84 70.8763 106.84C70.9029 106.84 70.9282 106.835 70.9523 106.824C70.9763 106.813 71.0016 106.808 71.0283 106.808C71.0469 106.808 71.0563 106.819 71.0563 106.84ZM72.714 105.596C72.7114 105.487 72.702 105.383 72.686 105.284C72.67 105.183 72.6314 105.1 72.57 105.036C72.5087 104.969 72.4087 104.936 72.27 104.936C72.1447 104.936 72.042 104.971 71.962 105.04C71.8847 105.107 71.8247 105.192 71.782 105.296C71.7394 105.397 71.7074 105.501 71.686 105.608C71.7527 105.611 71.818 105.613 71.882 105.616C71.946 105.616 72.01 105.616 72.074 105.616C72.1807 105.616 72.2874 105.615 72.394 105.612C72.5007 105.607 72.6074 105.601 72.714 105.596ZM73.174 106.512C73.174 106.525 73.1714 106.533 73.166 106.536C73.158 106.563 73.138 106.595 73.106 106.632C73.0767 106.669 73.0434 106.705 73.006 106.74C72.9687 106.772 72.938 106.796 72.914 106.812C72.826 106.873 72.726 106.923 72.614 106.96C72.5047 106.997 72.3954 107.016 72.286 107.016C72.1954 107.016 72.094 107.001 71.982 106.972C71.8727 106.943 71.7794 106.903 71.702 106.852C71.5527 106.753 71.4434 106.624 71.374 106.464C71.3047 106.304 71.27 106.137 71.27 105.964C71.27 105.767 71.3087 105.584 71.386 105.416C71.4634 105.248 71.5874 105.112 71.758 105.008C71.8354 104.963 71.922 104.925 72.018 104.896C72.114 104.864 72.206 104.848 72.294 104.848C72.4514 104.848 72.59 104.88 72.71 104.944C72.83 105.008 72.9234 105.099 72.99 105.216C73.0594 105.331 73.094 105.468 73.094 105.628C73.094 105.673 73.0834 105.703 73.062 105.716C73.0434 105.729 73.014 105.736 72.974 105.736C72.9207 105.736 72.8674 105.735 72.814 105.732C72.7607 105.729 72.7074 105.727 72.654 105.724C72.5794 105.719 72.5047 105.716 72.43 105.716C72.358 105.716 72.2847 105.716 72.21 105.716C72.1194 105.716 72.0287 105.716 71.938 105.716C71.8474 105.716 71.7567 105.719 71.666 105.724C71.6634 105.767 71.6607 105.808 71.658 105.848C71.6554 105.888 71.654 105.929 71.654 105.972C71.654 106.071 71.666 106.173 71.69 106.28C71.714 106.384 71.7527 106.481 71.806 106.572C71.8594 106.66 71.9274 106.732 72.01 106.788C72.0927 106.841 72.1927 106.868 72.31 106.868C72.43 106.868 72.5447 106.849 72.654 106.812C72.7634 106.775 72.8634 106.715 72.954 106.632C72.978 106.608 72.9994 106.583 73.018 106.556C73.0394 106.527 73.062 106.501 73.086 106.48C73.0994 106.467 73.114 106.46 73.13 106.46C73.1434 106.46 73.154 106.465 73.162 106.476C73.17 106.487 73.174 106.499 73.174 106.512ZM74.5217 106.948C74.5217 106.961 74.5177 106.975 74.5097 106.988C74.5044 106.999 74.4937 107.004 74.4777 107.004C74.3951 107.004 74.3111 107.003 74.2257 107C74.1404 106.995 74.0551 106.992 73.9697 106.992H73.8297C73.7737 106.992 73.7177 106.995 73.6617 107C73.6057 107.003 73.5497 107.004 73.4937 107.004C73.4831 107.004 73.4751 107 73.4697 106.992C73.4671 106.981 73.4657 106.972 73.4657 106.964C73.4657 106.956 73.4657 106.948 73.4657 106.94C73.4657 106.932 73.4671 106.924 73.4697 106.916C73.4751 106.905 73.4897 106.9 73.5137 106.9C73.5404 106.897 73.5671 106.897 73.5937 106.9C73.6231 106.9 73.6417 106.9 73.6497 106.9C73.6871 106.9 73.7204 106.892 73.7497 106.876C73.7791 106.857 73.7937 106.827 73.7937 106.784C73.7937 106.579 73.7951 106.375 73.7977 106.172C73.8004 105.967 73.8017 105.763 73.8017 105.56C73.8017 105.352 73.8004 105.144 73.7977 104.936C73.7977 104.725 73.7977 104.516 73.7977 104.308C73.7977 104.289 73.7964 104.269 73.7937 104.248C73.7911 104.224 73.7831 104.205 73.7697 104.192C73.7591 104.179 73.7484 104.172 73.7377 104.172C73.7271 104.169 73.7137 104.168 73.6977 104.168C73.6497 104.168 73.6017 104.176 73.5537 104.192C73.5084 104.208 73.4631 104.216 73.4177 104.216C73.3884 104.216 73.3737 104.199 73.3737 104.164C73.3737 104.143 73.3897 104.128 73.4217 104.12C73.4564 104.112 73.4831 104.107 73.5017 104.104C73.5951 104.083 73.6964 104.059 73.8057 104.032C73.9151 104.005 74.0137 103.975 74.1017 103.94C74.1071 103.94 74.1124 103.939 74.1177 103.936C74.1231 103.933 74.1271 103.932 74.1297 103.932C74.1457 103.932 74.1551 103.937 74.1577 103.948C74.1631 103.959 74.1657 103.971 74.1657 103.984C74.1657 104.059 74.1644 104.133 74.1617 104.208C74.1617 104.28 74.1617 104.353 74.1617 104.428V105.548C74.1617 105.753 74.1631 105.96 74.1657 106.168C74.1684 106.373 74.1697 106.579 74.1697 106.784C74.1697 106.827 74.1871 106.857 74.2217 106.876C74.2591 106.892 74.2951 106.9 74.3297 106.9C74.3591 106.9 74.3871 106.899 74.4137 106.896C74.4404 106.893 74.4671 106.892 74.4937 106.892C74.5071 106.892 74.5151 106.9 74.5177 106.916C74.5204 106.929 74.5217 106.94 74.5217 106.948ZM77.2805 104.468C77.2805 104.489 77.2712 104.509 77.2525 104.528C77.2339 104.547 77.2139 104.556 77.1925 104.556C77.1552 104.556 77.1299 104.54 77.1165 104.508C77.1032 104.471 77.0885 104.433 77.0725 104.396C77.0592 104.359 77.0459 104.321 77.0325 104.284C77.0112 104.231 76.9805 104.188 76.9405 104.156C76.9032 104.121 76.8539 104.104 76.7925 104.104C76.6912 104.104 76.6152 104.14 76.5645 104.212C76.5165 104.281 76.4925 104.363 76.4925 104.456C76.4925 104.547 76.4925 104.637 76.4925 104.728C76.4925 104.819 76.4939 104.911 76.4965 105.004C76.5819 105.004 76.6672 105.004 76.7525 105.004C76.8379 105.001 76.9232 105 77.0085 105C77.0272 105 77.0405 105.008 77.0485 105.024C77.0592 105.037 77.0645 105.052 77.0645 105.068C77.0645 105.087 77.0605 105.103 77.0525 105.116C77.0445 105.129 77.0299 105.136 77.0085 105.136C76.9552 105.136 76.9019 105.136 76.8485 105.136C76.7952 105.133 76.7419 105.132 76.6885 105.132H76.5085V106.68C76.5085 106.739 76.5219 106.792 76.5485 106.84C76.5752 106.885 76.6219 106.908 76.6885 106.908C76.7179 106.908 76.7459 106.907 76.7725 106.904C76.8019 106.899 76.8299 106.896 76.8565 106.896C76.8725 106.896 76.8832 106.904 76.8885 106.92C76.8965 106.933 76.9005 106.947 76.9005 106.96C76.9005 106.989 76.8859 107.004 76.8565 107.004C76.7659 107.004 76.6739 107.003 76.5805 107C76.4899 106.995 76.3992 106.992 76.3085 106.992C76.2579 106.992 76.2085 106.992 76.1605 106.992C76.1125 106.992 76.0645 106.993 76.0165 106.996C75.9819 106.999 75.9485 107.001 75.9165 107.004C75.8845 107.007 75.8512 107.008 75.8165 107.008C75.7765 107.008 75.7565 106.992 75.7565 106.96C75.7565 106.931 75.7659 106.915 75.7845 106.912C75.8032 106.907 75.8219 106.904 75.8405 106.904C75.8592 106.904 75.8765 106.905 75.8925 106.908C75.9112 106.908 75.9299 106.908 75.9485 106.908C76.0259 106.908 76.0752 106.887 76.0965 106.844C76.1205 106.801 76.1325 106.747 76.1325 106.68V105.128H75.9045C75.8859 105.128 75.8645 105.131 75.8405 105.136C75.8192 105.139 75.8005 105.145 75.7845 105.156C75.7819 105.159 75.7779 105.163 75.7725 105.168C75.7699 105.173 75.7659 105.176 75.7605 105.176C75.7392 105.176 75.7285 105.168 75.7285 105.152C75.7285 105.147 75.7312 105.127 75.7365 105.092C75.7445 105.055 75.7499 105.035 75.7525 105.032C75.7579 105.019 75.7645 105.012 75.7725 105.012C75.7805 105.009 75.7899 105.008 75.8005 105.008C75.8192 105.008 75.8365 105.009 75.8525 105.012C75.8685 105.012 75.8859 105.012 75.9045 105.012H76.1245C76.1245 104.956 76.1245 104.9 76.1245 104.844C76.1245 104.788 76.1245 104.732 76.1245 104.676C76.1245 104.431 76.1885 104.26 76.3165 104.164C76.4472 104.065 76.6272 104.016 76.8565 104.016C76.9259 104.016 76.9925 104.031 77.0565 104.06C77.1205 104.087 77.1872 104.1 77.2565 104.1C77.2592 104.161 77.2632 104.223 77.2685 104.284C77.2765 104.345 77.2805 104.407 77.2805 104.468ZM79.6751 106.892C79.6751 106.924 79.6511 106.948 79.6031 106.964C79.5578 106.98 79.5071 106.991 79.4511 106.996C79.3951 107.001 79.3551 107.004 79.3311 107.004C79.2405 107.004 79.1685 106.968 79.1151 106.896C79.0618 106.824 79.0218 106.749 78.9951 106.672C78.9045 106.787 78.7911 106.872 78.6551 106.928C78.5191 106.984 78.3778 107.012 78.2311 107.012C77.9911 107.012 77.8245 106.951 77.7311 106.828C77.6405 106.703 77.5951 106.527 77.5951 106.3C77.5951 106.1 77.5951 105.9 77.5951 105.7C77.5978 105.497 77.6005 105.296 77.6031 105.096C77.6031 105.016 77.5645 104.976 77.4871 104.976C77.4658 104.976 77.4445 104.977 77.4231 104.98C77.4018 104.983 77.3805 104.984 77.3591 104.984C77.3511 104.984 77.3445 104.98 77.3391 104.972C77.3365 104.961 77.3351 104.953 77.3351 104.948C77.3351 104.919 77.3485 104.903 77.3751 104.9C77.4685 104.889 77.5618 104.883 77.6551 104.88C77.7511 104.875 77.8458 104.867 77.9391 104.856C77.9605 104.877 77.9711 104.904 77.9711 104.936C77.9711 105.003 77.9698 105.071 77.9671 105.14C77.9645 105.209 77.9631 105.279 77.9631 105.348C77.9605 105.511 77.9578 105.675 77.9551 105.84C77.9551 106.003 77.9551 106.167 77.9551 106.332C77.9551 106.383 77.9565 106.437 77.9591 106.496C77.9618 106.552 77.9725 106.604 77.9911 106.652C78.0205 106.727 78.0751 106.78 78.1551 106.812C78.2378 106.841 78.3165 106.856 78.3911 106.856C78.4738 106.856 78.5565 106.841 78.6391 106.812C78.7245 106.78 78.7965 106.735 78.8551 106.676C78.9165 106.615 78.9511 106.539 78.9591 106.448C78.9645 106.403 78.9671 106.357 78.9671 106.312C78.9698 106.264 78.9711 106.217 78.9711 106.172L78.9671 105.084C78.9671 105.049 78.9551 105.024 78.9311 105.008C78.9098 104.992 78.8845 104.984 78.8551 104.984C78.8285 104.984 78.8018 104.985 78.7751 104.988C78.7511 104.991 78.7258 104.992 78.6991 104.992C78.6751 104.992 78.6631 104.979 78.6631 104.952C78.6631 104.925 78.6751 104.911 78.6991 104.908C78.7311 104.903 78.7645 104.9 78.7991 104.9C78.8338 104.897 78.8685 104.895 78.9031 104.892L79.1791 104.864C79.1978 104.861 79.2165 104.859 79.2351 104.856C79.2565 104.853 79.2765 104.852 79.2951 104.852C79.3085 104.852 79.3178 104.86 79.3231 104.876C79.3285 104.889 79.3311 104.9 79.3311 104.908C79.3231 105.487 79.3191 106.064 79.3191 106.64C79.3191 106.707 79.3338 106.761 79.3631 106.804C79.3951 106.847 79.4471 106.868 79.5191 106.868C79.5405 106.868 79.5591 106.865 79.5751 106.86C79.5938 106.855 79.6125 106.852 79.6311 106.852C79.6605 106.852 79.6751 106.865 79.6751 106.892ZM81.1708 106.816C81.1708 106.84 81.1522 106.864 81.1148 106.888C81.0802 106.912 81.0375 106.933 80.9868 106.952C80.9362 106.971 80.8868 106.985 80.8388 106.996C80.7935 107.007 80.7602 107.012 80.7388 107.012C80.6002 107.012 80.4922 106.995 80.4148 106.96C80.3402 106.925 80.2868 106.868 80.2548 106.788C80.2255 106.708 80.2108 106.6 80.2108 106.464C80.2108 106.243 80.2108 106.021 80.2108 105.8C80.2135 105.576 80.2162 105.353 80.2188 105.132H79.9308C79.9122 105.132 79.8962 105.137 79.8828 105.148C79.8722 105.156 79.8602 105.16 79.8468 105.16C79.8335 105.16 79.8268 105.151 79.8268 105.132C79.8268 105.121 79.8335 105.1 79.8468 105.068C79.8628 105.036 79.8735 105.015 79.8788 105.004C79.8868 105.007 79.8988 105.008 79.9148 105.008H80.2268L80.2308 104.5C80.2922 104.46 80.3482 104.416 80.3988 104.368C80.4495 104.317 80.5002 104.267 80.5508 104.216C80.5562 104.211 80.5615 104.207 80.5668 104.204C80.5722 104.199 80.5775 104.196 80.5828 104.196C80.6068 104.196 80.6188 104.205 80.6188 104.224L80.5948 105.004C80.6802 105.004 80.7642 105.003 80.8468 105C80.9322 104.997 81.0162 104.996 81.0988 104.996C81.1335 104.996 81.1508 105.016 81.1508 105.056C81.1508 105.107 81.1282 105.132 81.0828 105.132H80.5948C80.5948 105.335 80.5935 105.539 80.5908 105.744C80.5908 105.947 80.5908 106.151 80.5908 106.356V106.664C80.5908 106.731 80.6188 106.777 80.6748 106.804C80.7308 106.828 80.7855 106.84 80.8388 106.84C80.9135 106.84 80.9868 106.828 81.0588 106.804C81.0668 106.799 81.0788 106.793 81.0948 106.788C81.1108 106.783 81.1228 106.78 81.1308 106.78C81.1575 106.78 81.1708 106.792 81.1708 106.816ZM83.6751 106.892C83.6751 106.924 83.6511 106.948 83.6031 106.964C83.5578 106.98 83.5071 106.991 83.4511 106.996C83.3951 107.001 83.3551 107.004 83.3311 107.004C83.2405 107.004 83.1685 106.968 83.1151 106.896C83.0618 106.824 83.0218 106.749 82.9951 106.672C82.9045 106.787 82.7911 106.872 82.6551 106.928C82.5191 106.984 82.3778 107.012 82.2311 107.012C81.9911 107.012 81.8245 106.951 81.7311 106.828C81.6405 106.703 81.5951 106.527 81.5951 106.3C81.5951 106.1 81.5951 105.9 81.5951 105.7C81.5978 105.497 81.6005 105.296 81.6031 105.096C81.6031 105.016 81.5645 104.976 81.4871 104.976C81.4658 104.976 81.4445 104.977 81.4231 104.98C81.4018 104.983 81.3805 104.984 81.3591 104.984C81.3511 104.984 81.3445 104.98 81.3391 104.972C81.3365 104.961 81.3351 104.953 81.3351 104.948C81.3351 104.919 81.3485 104.903 81.3751 104.9C81.4685 104.889 81.5618 104.883 81.6551 104.88C81.7511 104.875 81.8458 104.867 81.9391 104.856C81.9605 104.877 81.9711 104.904 81.9711 104.936C81.9711 105.003 81.9698 105.071 81.9671 105.14C81.9645 105.209 81.9631 105.279 81.9631 105.348C81.9605 105.511 81.9578 105.675 81.9551 105.84C81.9551 106.003 81.9551 106.167 81.9551 106.332C81.9551 106.383 81.9565 106.437 81.9591 106.496C81.9618 106.552 81.9725 106.604 81.9911 106.652C82.0205 106.727 82.0751 106.78 82.1551 106.812C82.2378 106.841 82.3165 106.856 82.3911 106.856C82.4738 106.856 82.5565 106.841 82.6391 106.812C82.7245 106.78 82.7965 106.735 82.8551 106.676C82.9165 106.615 82.9511 106.539 82.9591 106.448C82.9645 106.403 82.9671 106.357 82.9671 106.312C82.9698 106.264 82.9711 106.217 82.9711 106.172L82.9671 105.084C82.9671 105.049 82.9551 105.024 82.9311 105.008C82.9098 104.992 82.8845 104.984 82.8551 104.984C82.8285 104.984 82.8018 104.985 82.7751 104.988C82.7511 104.991 82.7258 104.992 82.6991 104.992C82.6751 104.992 82.6631 104.979 82.6631 104.952C82.6631 104.925 82.6751 104.911 82.6991 104.908C82.7311 104.903 82.7645 104.9 82.7991 104.9C82.8338 104.897 82.8685 104.895 82.9031 104.892L83.1791 104.864C83.1978 104.861 83.2165 104.859 83.2351 104.856C83.2565 104.853 83.2765 104.852 83.2951 104.852C83.3085 104.852 83.3178 104.86 83.3231 104.876C83.3285 104.889 83.3311 104.9 83.3311 104.908C83.3231 105.487 83.3191 106.064 83.3191 106.64C83.3191 106.707 83.3338 106.761 83.3631 106.804C83.3951 106.847 83.4471 106.868 83.5191 106.868C83.5405 106.868 83.5591 106.865 83.5751 106.86C83.5938 106.855 83.6125 106.852 83.6311 106.852C83.6605 106.852 83.6751 106.865 83.6751 106.892ZM85.4548 105.22C85.4548 105.247 85.4442 105.272 85.4228 105.296C85.4042 105.317 85.3802 105.328 85.3508 105.328C85.3108 105.328 85.2815 105.315 85.2628 105.288C85.2468 105.261 85.2322 105.231 85.2188 105.196C85.2082 105.161 85.1908 105.131 85.1668 105.104C85.1428 105.077 85.1028 105.064 85.0468 105.064C85.0362 105.064 85.0255 105.064 85.0148 105.064C85.0068 105.064 84.9975 105.065 84.9868 105.068C84.9415 105.076 84.8922 105.104 84.8388 105.152C84.7855 105.2 84.7335 105.257 84.6828 105.324C84.6348 105.388 84.5948 105.452 84.5628 105.516C84.5308 105.58 84.5135 105.633 84.5108 105.676C84.5082 105.719 84.5068 105.761 84.5068 105.804C84.5068 105.844 84.5068 105.884 84.5068 105.924C84.5068 106.068 84.5068 106.212 84.5068 106.356C84.5095 106.5 84.5108 106.643 84.5108 106.784C84.5108 106.824 84.5268 106.853 84.5588 106.872C84.5935 106.888 84.6282 106.896 84.6628 106.896C84.6895 106.896 84.7162 106.895 84.7428 106.892C84.7695 106.889 84.7962 106.888 84.8228 106.888C84.8362 106.888 84.8455 106.895 84.8508 106.908C84.8562 106.919 84.8588 106.929 84.8588 106.94C84.8588 106.983 84.8375 107.004 84.7948 107.004C84.7148 107.004 84.6348 107.003 84.5548 107C84.4748 106.995 84.3948 106.992 84.3148 106.992C84.2322 106.992 84.1482 106.995 84.0628 107C83.9802 107.005 83.8962 107.008 83.8108 107.008C83.8002 107.008 83.7922 107 83.7868 106.984C83.7842 106.968 83.7828 106.955 83.7828 106.944C83.7828 106.917 83.7935 106.903 83.8148 106.9C83.8442 106.895 83.8748 106.893 83.9068 106.896C83.9388 106.899 83.9682 106.9 83.9948 106.9C84.0348 106.9 84.0668 106.892 84.0908 106.876C84.1175 106.857 84.1322 106.827 84.1348 106.784C84.1402 106.699 84.1428 106.612 84.1428 106.524C84.1455 106.436 84.1468 106.348 84.1468 106.26V105.872C84.1442 105.757 84.1428 105.644 84.1428 105.532C84.1455 105.417 84.1415 105.304 84.1308 105.192C84.1282 105.139 84.1135 105.101 84.0868 105.08C84.0602 105.056 84.0202 105.044 83.9668 105.044C83.9455 105.044 83.9228 105.047 83.8988 105.052C83.8775 105.055 83.8548 105.056 83.8308 105.056C83.8095 105.056 83.7988 105.04 83.7988 105.008C83.7988 104.989 83.8082 104.976 83.8268 104.968C83.8535 104.96 83.8815 104.955 83.9108 104.952C83.9402 104.947 83.9682 104.943 83.9948 104.94C84.0668 104.927 84.1388 104.913 84.2108 104.9C84.2828 104.887 84.3548 104.871 84.4268 104.852C84.4508 104.86 84.4682 104.875 84.4788 104.896C84.4842 104.907 84.4882 104.936 84.4908 104.984C84.4935 105.032 84.4948 105.088 84.4948 105.152C84.4948 105.213 84.4948 105.272 84.4948 105.328C84.4948 105.381 84.4948 105.419 84.4948 105.44C84.5535 105.347 84.6202 105.253 84.6948 105.16C84.7695 105.067 84.8548 104.989 84.9508 104.928C85.0468 104.867 85.1548 104.836 85.2748 104.836C85.3388 104.836 85.3802 104.856 85.3988 104.896C85.4175 104.936 85.4295 104.983 85.4348 105.036C85.4402 105.065 85.4442 105.096 85.4468 105.128C85.4522 105.16 85.4548 105.191 85.4548 105.22ZM87.3762 105.944C87.3762 105.829 87.3669 105.715 87.3482 105.6C87.3322 105.483 87.3002 105.375 87.2522 105.276C87.2069 105.177 87.1402 105.099 87.0522 105.04C86.9642 104.979 86.8495 104.948 86.7082 104.948C86.5749 104.948 86.4655 104.98 86.3802 105.044C86.2975 105.108 86.2322 105.191 86.1842 105.292C86.1389 105.393 86.1069 105.503 86.0882 105.62C86.0722 105.737 86.0642 105.848 86.0642 105.952C86.0642 106.067 86.0722 106.181 86.0882 106.296C86.1069 106.411 86.1402 106.515 86.1882 106.608C86.2362 106.699 86.3042 106.772 86.3922 106.828C86.4829 106.884 86.5989 106.912 86.7402 106.912C86.8789 106.912 86.9895 106.883 87.0722 106.824C87.1575 106.765 87.2215 106.688 87.2642 106.592C87.3095 106.496 87.3389 106.392 87.3522 106.28C87.3682 106.165 87.3762 106.053 87.3762 105.944ZM87.7882 105.956C87.7882 106.156 87.7402 106.336 87.6442 106.496C87.5509 106.656 87.4229 106.783 87.2602 106.876C87.1002 106.969 86.9202 107.016 86.7202 107.016C86.5255 107.016 86.3495 106.969 86.1922 106.876C86.0349 106.78 85.9095 106.653 85.8162 106.496C85.7229 106.336 85.6762 106.159 85.6762 105.964C85.6762 105.764 85.7215 105.58 85.8122 105.412C85.9029 105.241 86.0269 105.104 86.1842 105C86.3442 104.896 86.5282 104.844 86.7362 104.844C86.9602 104.844 87.1509 104.892 87.3082 104.988C87.4655 105.081 87.5842 105.212 87.6642 105.38C87.7469 105.545 87.7882 105.737 87.7882 105.956Z" fill="white"/>
<path d="M86.0024 81.612C86.0011 81.8329 85.8209 82.0109 85.6 82.0095L84.4 82.0023C84.1791 82.001 84.0011 81.8208 84.0024 81.5999L84.0181 79C84.0214 78.4477 84.4718 78.0027 85.0241 78.006C85.5763 78.0093 86.0214 78.4597 86.018 79.012L86.0024 81.612Z" fill="white"/>
<defs>
<filter id="filter0_d_6_54" x="27.752" y="58.5617" width="64.4886" height="104.575" filterUnits="userSpaceOnUse" color-interpolation-filters="sRGB">
<feFlood flood-opacity="0" result="BackgroundImageFix"/>
<feColorMatrix in="SourceAlpha" type="matrix" values="0 0 0 0 0 0 0 0 0 0 0 0 0 0 0 0 0 0 127 0" result="hardAlpha"/>
<feOffset dy="90"/>
<feGaussianBlur stdDeviation="3.5"/>
<feComposite in2="hardAlpha" operator="out"/>
<feColorMatrix type="matrix" values="0 0 0 0 0 0 0 0 0 0 0 0 0 0 0 0 0 0 0.25 0"/>
<feBlend mode="normal" in2="BackgroundImageFix" result="effect1_dropShadow_6_54"/>
<feBlend mode="normal" in="SourceGraphic" in2="effect1_dropShadow_6_54" result="shape"/>
</filter>
<filter id="filter1_d_6_54" x="27.752" y="74.5617" width="64.4886" height="104.575" filterUnits="userSpaceOnUse" color-interpolation-filters="sRGB">
<feFlood flood-opacity="0" result="BackgroundImageFix"/>
<feColorMatrix in="SourceAlpha" type="matrix" values="0 0 0 0 0 0 0 0 0 0 0 0 0 0 0 0 0 0 127 0" result="hardAlpha"/>
<feOffset dy="90"/>
<feGaussianBlur stdDeviation="3.5"/>
<feComposite in2="hardAlpha" operator="out"/>
<feColorMatrix type="matrix" values="0 0 0 0 0 0 0 0 0 0 0 0 0 0 0 0 0 0 0.25 0"/>
<feBlend mode="normal" in2="BackgroundImageFix" result="effect1_dropShadow_6_54"/>
<feBlend mode="normal" in="SourceGraphic" in2="effect1_dropShadow_6_54" result="shape"/>
</filter>
</defs>
</svg>
